Varta-Regular.ufo
<glyph name="four" format="1">
  <advance width="1017"/>
  <unicode hex="0034"/>
  <outline>
    <contour>
      <point x="211" y="495" type="line" name="hr01"/>
      <point x="518" y="985" type="line"/>
      <point x="555" y="1049"/>
      <point x="592" y="1105"/>
      <point x="625" y="1168" type="curve" name="hr02"/>
      <point x="633" y="1168" type="line"/>
      <point x="629" y="1100"/>
      <point x="623" y="987"/>
      <point x="623" y="917" type="curve" smooth="yes"/>
      <point x="623" y="495" type="line"/>
    </contour>
    <contour>
      <point x="960" y="495" type="line"/>
      <point x="780" y="495" type="line"/>
      <point x="780" y="1348" type="line"/>
      <point x="595" y="1348" type="line"/>
      <point x="35" y="470" type="line"/>
      <point x="35" y="361" type="line"/>
      <point x="623" y="361" type="line"/>
      <point x="623" y="0" type="line"/>
      <point x="780" y="0" type="line"/>
      <point x="780" y="361" type="line"/>
      <point x="960" y="361" type="line"/>
    </contour>
  </outline>
</glyph>
<glyph name="I" format="1">
  <advance width="526"/>
  <unicode hex="0049"/>
  <outline>
    <contour>
      <point x="178" y="0" type="line" name="hr00"/>
      <point x="348" y="0" type="line"/>
      <point x="348" y="1343" type="line"/>
      <point x="178" y="1343" type="line"/>
    </contour>
    <contour>
      <point x="263" y="1050" type="move" name="top"/>
    </contour>
  </outline>
</glyph>
<glyph name="L" format="1">
  <advance width="983"/>
  <unicode hex="004C"/>
  <outline>
    <contour>
      <point x="178" y="0" type="line" name="hr00"/>
      <point x="935" y="0" type="line"/>
      <point x="935" y="143" type="line"/>
      <point x="348" y="143" type="line"/>
      <point x="348" y="1343" type="line"/>
      <point x="178" y="1343" type="line"/>
    </contour>
    <contour>
      <point x="556" y="1050" type="move" name="top"/>
    </contour>
  </outline>
</glyph>
<glyph name="R" format="1">
  <advance width="1178"/>
  <unicode hex="0052"/>
  <outline>
    <contour>
      <point x="348" y="1208" type="line" name="hr00"/>
      <point x="589" y="1208" type="line"/>
      <point x="799" y="1208"/>
      <point x="900" y="1157"/>
      <point x="900" y="971" type="curve" smooth="yes"/>
      <point x="900" y="776"/>
      <point x="799" y="707"/>
      <point x="589" y="707" type="curve" smooth="yes"/>
      <point x="348" y="707" type="line"/>
    </contour>
    <contour>
      <point x="1108" y="0" type="line"/>
      <point x="775" y="587" type="line"/>
      <point x="958" y="634"/>
      <point x="1068" y="742"/>
      <point x="1068" y="971" type="curve" smooth="yes"/>
      <point x="1068" y="1258"/>
      <point x="886" y="1343"/>
      <point x="614" y="1343" type="curve" smooth="yes"/>
      <point x="178" y="1343" type="line"/>
      <point x="178" y="0" type="line"/>
      <point x="348" y="0" type="line"/>
      <point x="348" y="568" type="line"/>
      <point x="601" y="568" type="line"/>
      <point x="916" y="0" type="line"/>
    </contour>
    <contour>
      <point x="643" y="1050" type="move" name="top"/>
    </contour>
  </outline>
</glyph>
<glyph name="Y" format="1">
  <advance width="963"/>
  <unicode hex="0059"/>
  <outline>
    <contour>
      <point x="397" y="0" type="line" name="hr00"/>
      <point x="565" y="0" type="line"/>
      <point x="565" y="521" type="line"/>
      <point x="969" y="1343" type="line"/>
      <point x="795" y="1343" type="line"/>
      <point x="621" y="964" type="line"/>
      <point x="579" y="865"/>
      <point x="531" y="771"/>
      <point x="486" y="671" type="curve"/>
      <point x="478" y="671" type="line"/>
      <point x="431" y="771"/>
      <point x="390" y="865"/>
      <point x="347" y="964" type="curve" smooth="yes"/>
      <point x="174" y="1343" type="line"/>
      <point x="-8" y="1343" type="line"/>
      <point x="397" y="521" type="line"/>
    </contour>
    <contour>
      <point x="480" y="1050" type="move" name="top"/>
    </contour>
  </outline>
</glyph>
<glyph name="bracketleft" format="1">
  <advance width="619"/>
  <unicode hex="005B"/>
  <outline>
    <contour>
      <point x="193" y="-311" type="line" name="hr00"/>
      <point x="558" y="-311" type="line"/>
      <point x="558" y="-216" type="line"/>
      <point x="318" y="-216" type="line"/>
      <point x="318" y="1353" type="line"/>
      <point x="558" y="1353" type="line"/>
      <point x="558" y="1450" type="line"/>
      <point x="193" y="1450" type="line"/>
    </contour>
  </outline>
</glyph>
<glyph name="c" format="1">
  <advance width="933"/>
  <unicode hex="0063"/>
  <outline>
    <contour>
      <point x="94" y="500" type="curve" name="hr00" smooth="yes"/>
      <point x="94" y="156"/>
      <point x="294" y="-25"/>
      <point x="558" y="-25" type="curve" smooth="yes"/>
      <point x="677" y="-25"/>
      <point x="785" y="15"/>
      <point x="875" y="94" type="curve"/>
      <point x="800" y="204" type="line"/>
      <point x="740" y="151"/>
      <point x="667" y="113"/>
      <point x="572" y="113" type="curve" smooth="yes"/>
      <point x="389" y="113"/>
      <point x="265" y="261"/>
      <point x="265" y="500" type="curve" smooth="yes"/>
      <point x="265" y="739"/>
      <point x="395" y="882"/>
      <point x="576" y="882" type="curve" smooth="yes"/>
      <point x="656" y="882"/>
      <point x="721" y="848"/>
      <point x="780" y="797" type="curve"/>
      <point x="863" y="904" type="line"/>
      <point x="797" y="967"/>
      <point x="702" y="1020"/>
      <point x="570" y="1020" type="curve" smooth="yes"/>
      <point x="314" y="1020"/>
      <point x="94" y="846"/>
    </contour>
    <contour>
      <point x="484" y="1050" type="move" name="top"/>
    </contour>
  </outline>
</glyph>
<glyph name="yen" format="1">
  <advance width="1017"/>
  <unicode hex="00A5"/>
  <outline>
    <contour>
      <point x="47" y="1307" type="line" name="hr00"/>
      <point x="382" y="650" type="line"/>
      <point x="92" y="650" type="line"/>
      <point x="92" y="555" type="line"/>
      <point x="424" y="555" type="line"/>
      <point x="424" y="422" type="line"/>
      <point x="92" y="422" type="line"/>
      <point x="92" y="324" type="line"/>
      <point x="424" y="324" type="line"/>
      <point x="424" y="0" type="line"/>
      <point x="591" y="0" type="line"/>
      <point x="591" y="324" type="line"/>
      <point x="925" y="324" type="line"/>
      <point x="925" y="422" type="line"/>
      <point x="591" y="422" type="line"/>
      <point x="591" y="555" type="line"/>
      <point x="925" y="555" type="line"/>
      <point x="925" y="650" type="line"/>
      <point x="633" y="650" type="line"/>
      <point x="970" y="1307" type="line"/>
      <point x="800" y="1307" type="line"/>
      <point x="639" y="955" type="line"/>
      <point x="598" y="865"/>
      <point x="559" y="775"/>
      <point x="514" y="679" type="curve"/>
      <point x="506" y="679" type="line"/>
      <point x="462" y="775"/>
      <point x="423" y="865"/>
      <point x="382" y="955" type="curve" smooth="yes"/>
      <point x="221" y="1307" type="line"/>
    </contour>
  </outline>
</glyph>
<glyph name="dieresis" format="1">
  <advance width="1109"/>
  <unicode hex="00A8"/>
  <outline>
    <contour>
      <point x="379" y="1205" type="curve" name="hr00" smooth="yes"/>
      <point x="436" y="1205"/>
      <point x="479" y="1247"/>
      <point x="479" y="1305" type="curve" smooth="yes"/>
      <point x="479" y="1361"/>
      <point x="436" y="1404"/>
      <point x="379" y="1404" type="curve" smooth="yes"/>
      <point x="323" y="1404"/>
      <point x="280" y="1361"/>
      <point x="280" y="1305" type="curve" smooth="yes"/>
      <point x="280" y="1247"/>
      <point x="323" y="1205"/>
    </contour>
    <contour>
      <point x="730" y="1205" type="curve" smooth="yes"/>
      <point x="790" y="1205"/>
      <point x="830" y="1247"/>
      <point x="830" y="1305" type="curve" smooth="yes"/>
      <point x="830" y="1361"/>
      <point x="790" y="1404"/>
      <point x="730" y="1404" type="curve" smooth="yes"/>
      <point x="674" y="1404"/>
      <point x="633" y="1361"/>
      <point x="633" y="1305" type="curve" smooth="yes"/>
      <point x="633" y="1247"/>
      <point x="674" y="1205"/>
    </contour>
    <contour>
      <point x="555" y="1050" type="move" name="_top"/>
    </contour>
  </outline>
</glyph>
<glyph name="paragraph" format="1">
  <advance width="1144"/>
  <unicode hex="00B6"/>
  <outline>
    <contour>
      <point x="778" y="-164" type="line" name="hr00"/>
      <point x="948" y="-164" type="line"/>
      <point x="948" y="1343" type="line"/>
      <point x="778" y="1343" type="line"/>
    </contour>
    <contour>
      <point x="600" y="464" type="curve"/>
      <point x="639" y="464" type="line"/>
      <point x="639" y="1343" type="line"/>
      <point x="578" y="1343" type="line"/>
      <point x="295" y="1343"/>
      <point x="84" y="1229"/>
      <point x="84" y="907" type="curve" smooth="yes"/>
      <point x="84" y="599"/>
      <point x="303" y="464"/>
    </contour>
  </outline>
</glyph>
<glyph name="Oslash" format="1">
  <advance width="1349"/>
  <unicode hex="00D8"/>
  <outline>
    <contour>
      <point x="1008" y="1003" type="line" name="hr00"/>
      <point x="1052" y="917"/>
      <point x="1074" y="806"/>
      <point x="1074" y="678" type="curve" smooth="yes"/>
      <point x="1074" y="341"/>
      <point x="915" y="123"/>
      <point x="676" y="123" type="curve" smooth="yes"/>
      <point x="572" y="123"/>
      <point x="484" y="163"/>
      <point x="418" y="232" type="curve"/>
    </contour>
    <contour>
      <point x="347" y="336" type="line"/>
      <point x="299" y="426"/>
      <point x="274" y="544"/>
      <point x="274" y="678" type="curve" smooth="yes"/>
      <point x="274" y="1013"/>
      <point x="433" y="1221"/>
      <point x="676" y="1221" type="curve" smooth="yes"/>
      <point x="780" y="1221"/>
      <point x="871" y="1182"/>
      <point x="939" y="1107" type="curve"/>
    </contour>
    <contour>
      <point x="1263" y="1333" type="line"/>
      <point x="1167" y="1405" type="line"/>
      <point x="1038" y="1235" type="line"/>
      <point x="942" y="1321"/>
      <point x="817" y="1368"/>
      <point x="676" y="1368" type="curve" smooth="yes"/>
      <point x="338" y="1368"/>
      <point x="100" y="1108"/>
      <point x="100" y="678" type="curve" smooth="yes"/>
      <point x="100" y="479"/>
      <point x="150" y="315"/>
      <point x="238" y="197" type="curve"/>
      <point x="96" y="12" type="line"/>
      <point x="192" y="-61" type="line"/>
      <point x="318" y="105" type="line"/>
      <point x="415" y="20"/>
      <point x="537" y="-25"/>
      <point x="676" y="-25" type="curve" smooth="yes"/>
      <point x="1011" y="-25"/>
      <point x="1248" y="246"/>
      <point x="1248" y="678" type="curve" smooth="yes"/>
      <point x="1248" y="870"/>
      <point x="1201" y="1029"/>
      <point x="1117" y="1146" type="curve"/>
    </contour>
  </outline>
</glyph>
<glyph name="Aogonek" format="1">
  <advance width="1101"/>
  <unicode hex="0104"/>
  <outline>
    <contour>
      <point x="345" y="547" type="line" name="hr00"/>
      <point x="411" y="753" type="line"/>
      <point x="458" y="902"/>
      <point x="501" y="1050"/>
      <point x="545" y="1205" type="curve"/>
      <point x="553" y="1205" type="line"/>
      <point x="596" y="1050"/>
      <point x="639" y="902"/>
      <point x="686" y="753" type="curve" smooth="yes"/>
      <point x="751" y="547" type="line"/>
    </contour>
    <contour>
      <point x="1117" y="-286" type="line"/>
      <point x="1093" y="-304"/>
      <point x="1066" y="-314"/>
      <point x="1031" y="-314" type="curve" smooth="yes"/>
      <point x="984" y="-314"/>
      <point x="937" y="-284"/>
      <point x="937" y="-219" type="curve" smooth="yes"/>
      <point x="937" y="-134"/>
      <point x="1007" y="-39"/>
      <point x="1101" y="0" type="curve"/>
      <point x="645" y="1343" type="line"/>
      <point x="456" y="1343" type="line"/>
      <point x="0" y="0" type="line"/>
      <point x="172" y="0" type="line"/>
      <point x="302" y="411" type="line"/>
      <point x="793" y="411" type="line"/>
      <point x="923" y="0" type="line"/>
      <point x="961" y="0" type="line"/>
      <point x="889" y="-47"/>
      <point x="807" y="-145"/>
      <point x="807" y="-256" type="curve" smooth="yes"/>
      <point x="807" y="-373"/>
      <point x="893" y="-434"/>
      <point x="1001" y="-434" type="curve" smooth="yes"/>
      <point x="1057" y="-434"/>
      <point x="1125" y="-408"/>
      <point x="1164" y="-377" type="curve"/>
    </contour>
  </outline>
</glyph>
<glyph name="aogonek" format="1">
  <advance width="1048"/>
  <unicode hex="0105"/>
  <outline>
    <contour>
      <point x="284" y="269" type="curve" name="hr01" smooth="yes"/>
      <point x="284" y="397"/>
      <point x="396" y="480"/>
      <point x="732" y="521" type="curve"/>
      <point x="732" y="243" type="line"/>
      <point x="635" y="157"/>
      <point x="555" y="110"/>
      <point x="458" y="110" type="curve" smooth="yes"/>
      <point x="359" y="110"/>
      <point x="284" y="157"/>
    </contour>
    <contour>
      <point x="119" y="258" type="curve" smooth="yes"/>
      <point x="119" y="79"/>
      <point x="245" y="-25"/>
      <point x="412" y="-25" type="curve" smooth="yes"/>
      <point x="535" y="-25"/>
      <point x="646" y="41"/>
      <point x="742" y="119" type="curve"/>
      <point x="746" y="119" type="line"/>
      <point x="763" y="8" type="line"/>
      <point x="682" y="-43"/>
      <point x="598" y="-137"/>
      <point x="598" y="-248" type="curve" name="hr02" smooth="yes"/>
      <point x="598" y="-362"/>
      <point x="678" y="-422"/>
      <point x="782" y="-422" type="curve" smooth="yes"/>
      <point x="834" y="-422"/>
      <point x="902" y="-397"/>
      <point x="941" y="-367" type="curve" name="hr03"/>
      <point x="898" y="-284" type="line"/>
      <point x="873" y="-300"/>
      <point x="849" y="-310"/>
      <point x="816" y="-310" type="curve" name="hr04" smooth="yes"/>
      <point x="767" y="-310"/>
      <point x="720" y="-280"/>
      <point x="720" y="-216" type="curve" smooth="yes"/>
      <point x="720" y="-135"/>
      <point x="785" y="-45"/>
      <point x="898" y="0" type="curve" name="hr05"/>
      <point x="898" y="610" type="line"/>
      <point x="898" y="858"/>
      <point x="797" y="1020"/>
      <point x="553" y="1020" type="curve" smooth="yes"/>
      <point x="393" y="1020"/>
      <point x="254" y="949"/>
      <point x="163" y="891" type="curve"/>
      <point x="229" y="775" type="line"/>
      <point x="307" y="828"/>
      <point x="410" y="882"/>
      <point x="526" y="882" type="curve" smooth="yes"/>
      <point x="689" y="882"/>
      <point x="732" y="758"/>
      <point x="732" y="631" type="curve"/>
      <point x="308" y="584"/>
      <point x="119" y="475"/>
    </contour>
  </outline>
</glyph>
<glyph name="Ohorn" format="1">
  <advance width="1349"/>
  <unicode hex="01A0"/>
  <outline>
    <contour>
      <point x="676" y="123" type="curve" name="hr01" smooth="yes"/>
      <point x="433" y="123"/>
      <point x="274" y="341"/>
      <point x="274" y="678" type="curve" smooth="yes"/>
      <point x="274" y="1013"/>
      <point x="433" y="1221"/>
      <point x="676" y="1221" type="curve" smooth="yes"/>
      <point x="915" y="1221"/>
      <point x="1074" y="1013"/>
      <point x="1074" y="678" type="curve" smooth="yes"/>
      <point x="1074" y="341"/>
      <point x="915" y="123"/>
    </contour>
    <contour>
      <point x="1079" y="1524" type="line" name="hr02"/>
      <point x="1096" y="1497"/>
      <point x="1108" y="1470"/>
      <point x="1108" y="1440" type="curve" smooth="yes"/>
      <point x="1108" y="1364"/>
      <point x="1055" y="1323"/>
      <point x="941" y="1303" type="curve"/>
      <point x="863" y="1346"/>
      <point x="774" y="1368"/>
      <point x="676" y="1368" type="curve" smooth="yes"/>
      <point x="338" y="1368"/>
      <point x="100" y="1108"/>
      <point x="100" y="678" type="curve" smooth="yes"/>
      <point x="100" y="246"/>
      <point x="338" y="-25"/>
      <point x="676" y="-25" type="curve" smooth="yes"/>
      <point x="1011" y="-25"/>
      <point x="1248" y="246"/>
      <point x="1248" y="678" type="curve" name="hr03" smooth="yes"/>
      <point x="1248" y="926"/>
      <point x="1168" y="1117"/>
      <point x="1037" y="1236" type="curve"/>
      <point x="1164" y="1267"/>
      <point x="1246" y="1333"/>
      <point x="1246" y="1450" type="curve" name="hr04" smooth="yes"/>
      <point x="1246" y="1501"/>
      <point x="1226" y="1546"/>
      <point x="1199" y="1583" type="curve"/>
    </contour>
  </outline>
</glyph>
<glyph name="uni0259" format="1">
  <advance width="1015"/>
  <unicode hex="0259"/>
  <outline>
    <contour>
      <point x="76" y="455" type="curve" name="hr00" smooth="yes"/>
      <point x="76" y="158"/>
      <point x="236" y="-25"/>
      <point x="487" y="-25" type="curve" smooth="yes"/>
      <point x="728" y="-25"/>
      <point x="921" y="174"/>
      <point x="921" y="500" type="curve" smooth="yes"/>
      <point x="921" y="827"/>
      <point x="732" y="1020"/>
      <point x="483" y="1020" type="curve" smooth="yes"/>
      <point x="343" y="1020"/>
      <point x="231" y="975"/>
      <point x="139" y="911" type="curve"/>
      <point x="198" y="802" type="line"/>
      <point x="275" y="853"/>
      <point x="356" y="888"/>
      <point x="457" y="888" type="curve" smooth="yes"/>
      <point x="638" y="888"/>
      <point x="744" y="752"/>
      <point x="755" y="548" type="curve"/>
      <point x="84" y="548" type="line"/>
      <point x="80" y="523"/>
      <point x="76" y="492"/>
    </contour>
    <contour>
      <point x="223" y="436" type="curve"/>
      <point x="757" y="436" type="line"/>
      <point x="738" y="226"/>
      <point x="637" y="110"/>
      <point x="483" y="110" type="curve" smooth="yes"/>
      <point x="325" y="110"/>
      <point x="223" y="216"/>
    </contour>
  </outline>
</glyph>
<glyph name="r.sups" format="1">
  <advance width="491"/>
  <unicode hex="02B3"/>
  <outline>
    <contour>
      <point x="106" y="532" type="line" name="hr01"/>
      <point x="235" y="532" type="line"/>
      <point x="235" y="949" type="line"/>
      <point x="280" y="1056"/>
      <point x="345" y="1093"/>
      <point x="402" y="1093" type="curve" name="hr02" smooth="yes"/>
      <point x="425" y="1093"/>
      <point x="452" y="1086"/>
      <point x="468" y="1082" type="curve"/>
      <point x="493" y="1194" type="line" name="hr03"/>
      <point x="476" y="1202"/>
      <point x="448" y="1208"/>
      <point x="415" y="1208" type="curve" name="hr04" smooth="yes"/>
      <point x="343" y="1208"/>
      <point x="280" y="1161"/>
      <point x="228" y="1075" type="curve"/>
      <point x="222" y="1075" type="line"/>
      <point x="208" y="1192" type="line" name="hr05"/>
      <point x="106" y="1192" type="line"/>
    </contour>
  </outline>
</glyph>
<glyph name="uni02BB" format="1">
  <advance width="508"/>
  <unicode hex="02BB"/>
  <outline>
    <contour>
      <point x="333" y="1425" type="line" name="hr00"/>
      <point x="193" y="1344"/>
      <point x="117" y="1226"/>
      <point x="117" y="1063" type="curve" smooth="yes"/>
      <point x="117" y="944"/>
      <point x="164" y="880"/>
      <point x="245" y="880" type="curve" smooth="yes"/>
      <point x="308" y="880"/>
      <point x="352" y="922"/>
      <point x="352" y="991" type="curve" smooth="yes"/>
      <point x="352" y="1059"/>
      <point x="300" y="1095"/>
      <point x="245" y="1095" type="curve" smooth="yes"/>
      <point x="239" y="1095"/>
      <point x="232" y="1095"/>
      <point x="226" y="1093" type="curve"/>
      <point x="226" y="1209"/>
      <point x="278" y="1279"/>
      <point x="382" y="1347" type="curve"/>
    </contour>
    <contour>
      <point x="249" y="1050" type="move" name="_top"/>
    </contour>
  </outline>
</glyph>
<glyph name="uni02BF" format="1">
  <advance width="331"/>
  <unicode hex="02BF"/>
  <outline>
    <contour>
      <point x="268" y="1488" type="line" name="hr00"/>
      <point x="123" y="1492"/>
      <point x="41" y="1416"/>
      <point x="41" y="1299" type="curve" smooth="yes"/>
      <point x="41" y="1182"/>
      <point x="123" y="1106"/>
      <point x="268" y="1110" type="curve"/>
      <point x="268" y="1183" type="line"/>
      <point x="174" y="1183"/>
      <point x="136" y="1230"/>
      <point x="136" y="1299" type="curve" smooth="yes"/>
      <point x="136" y="1368"/>
      <point x="174" y="1415"/>
      <point x="268" y="1415" type="curve"/>
    </contour>
    <contour>
      <point x="154" y="1050" type="move" name="_top"/>
    </contour>
  </outline>
</glyph>
<glyph name="uni02C9" format="1">
  <advance width="566"/>
  <unicode hex="02C9"/>
  <outline>
    <contour>
      <point x="33" y="1231" type="line"/>
      <point x="534" y="1231" type="line"/>
      <point x="534" y="1347" type="line"/>
      <point x="33" y="1347" type="line"/>
    </contour>
  </outline>
</glyph>
<glyph name="dotaccent" format="1">
  <advance width="1109"/>
  <unicode hex="02D9"/>
  <outline>
    <contour>
      <point x="555" y="1201" type="curve" name="hr00" smooth="yes"/>
      <point x="617" y="1201"/>
      <point x="665" y="1245"/>
      <point x="665" y="1311" type="curve" smooth="yes"/>
      <point x="665" y="1373"/>
      <point x="617" y="1420"/>
      <point x="555" y="1420" type="curve" smooth="yes"/>
      <point x="492" y="1420"/>
      <point x="445" y="1373"/>
      <point x="445" y="1311" type="curve" smooth="yes"/>
      <point x="445" y="1245"/>
      <point x="492" y="1201"/>
    </contour>
    <contour>
      <point x="555" y="1050" type="move" name="_top"/>
    </contour>
  </outline>
</glyph>
<glyph name="uni0307" format="1">
  <advance width="600"/>
  <unicode hex="0307"/>
  <outline>
    <contour>
      <point x="0" y="1201" type="curve" smooth="yes"/>
      <point x="63" y="1201"/>
      <point x="110" y="1245"/>
      <point x="110" y="1311" type="curve" smooth="yes"/>
      <point x="110" y="1373"/>
      <point x="63" y="1420"/>
      <point x="0" y="1420" type="curve" smooth="yes"/>
      <point x="-63" y="1420"/>
      <point x="-110" y="1373"/>
      <point x="-110" y="1311" type="curve" smooth="yes"/>
      <point x="-110" y="1245"/>
      <point x="-63" y="1201"/>
    </contour>
    <contour>
      <point x="0" y="1040" type="move" name="_mark0"/>
    </contour>
  </outline>
</glyph>
<glyph name="uni030B" format="1">
  <advance width="600"/>
  <unicode hex="030B"/>
  <outline>
    <contour>
      <point x="-200" y="1169" type="line"/>
      <point x="-88" y="1169" type="line"/>
      <point x="91" y="1462" type="line"/>
      <point x="-56" y="1462" type="line"/>
    </contour>
    <contour>
      <point x="100" y="1169" type="line"/>
      <point x="212" y="1169" type="line"/>
      <point x="392" y="1462" type="line"/>
      <point x="246" y="1462" type="line"/>
    </contour>
    <contour>
      <point x="0" y="1040" type="move" name="_mark0"/>
    </contour>
  </outline>
</glyph>
<glyph name="uni0324" format="1">
  <advance width="0"/>
  <unicode hex="0324"/>
  <outline>
    <contour>
      <point x="-176" y="-411" type="curve" name="hr00" smooth="yes"/>
      <point x="-119" y="-411"/>
      <point x="-76" y="-367"/>
      <point x="-76" y="-311" type="curve" smooth="yes"/>
      <point x="-76" y="-255"/>
      <point x="-119" y="-212"/>
      <point x="-176" y="-212" type="curve" smooth="yes"/>
      <point x="-235" y="-212"/>
      <point x="-275" y="-255"/>
      <point x="-275" y="-311" type="curve" smooth="yes"/>
      <point x="-275" y="-367"/>
      <point x="-235" y="-411"/>
    </contour>
    <contour>
      <point x="176" y="-411" type="curve" smooth="yes"/>
      <point x="235" y="-411"/>
      <point x="275" y="-367"/>
      <point x="275" y="-311" type="curve" smooth="yes"/>
      <point x="275" y="-255"/>
      <point x="235" y="-212"/>
      <point x="176" y="-212" type="curve" smooth="yes"/>
      <point x="119" y="-212"/>
      <point x="76" y="-255"/>
      <point x="76" y="-311" type="curve" smooth="yes"/>
      <point x="76" y="-367"/>
      <point x="119" y="-411"/>
    </contour>
    <contour>
      <point x="0" y="1050" type="move" name="_top"/>
    </contour>
  </outline>
</glyph>
<glyph name="pi" format="1">
  <advance width="1147"/>
  <unicode hex="03C0"/>
  <outline>
    <contour>
      <point x="225" y="0" type="line" name="hr01"/>
      <point x="389" y="0" type="line"/>
      <point x="389" y="857" type="line"/>
      <point x="764" y="857" type="line"/>
      <point x="764" y="230" type="line"/>
      <point x="764" y="73"/>
      <point x="817" y="-25"/>
      <point x="962" y="-25" type="curve" name="hr02" smooth="yes"/>
      <point x="1007" y="-25"/>
      <point x="1040" y="-18"/>
      <point x="1073" y="-4" type="curve"/>
      <point x="1052" y="124" type="line"/>
      <point x="1030" y="117"/>
      <point x="1016" y="113"/>
      <point x="1002" y="113" type="curve" smooth="yes"/>
      <point x="956" y="113"/>
      <point x="932" y="153"/>
      <point x="932" y="218" type="curve" smooth="yes"/>
      <point x="932" y="857" type="line"/>
      <point x="1083" y="857" type="line"/>
      <point x="1083" y="995" type="line"/>
      <point x="190" y="995" type="line"/>
      <point x="49" y="985" type="line"/>
      <point x="49" y="857" type="line"/>
      <point x="225" y="857" type="line"/>
    </contour>
  </outline>
</glyph>
<glyph name="aShort-deva" format="1">
  <advance width="1386"/>
  <unicode hex="0904"/>
  <outline>
    <component base="a-deva"/>
    <component base="eShortMatra-deva" xOffset="849" yOffset="28"/>
    <contour>
      <point x="343" y="584" type="move" name="top"/>
    </contour>
    <contour>
      <point x="343" y="14" type="move" name="bottom"/>
    </contour>
  </outline>
</glyph>
<glyph name="ai-deva" format="1">
  <advance width="1034"/>
  <unicode hex="0910"/>
  <outline>
    <component base="e-deva"/>
    <component base="eMatra-deva" xOffset="546"/>
    <contour>
      <point x="956" y="1400" type="move" name="topcandra"/>
    </contour>
  </outline>
</glyph>
<glyph name="tta-deva" format="1">
  <advance width="1016"/>
  <unicode hex="091F"/>
  <outline>
    <contour>
      <point x="698" y="1167" type="line"/>
      <point x="698" y="844" type="line"/>
      <point x="755" y="882" type="line"/>
      <point x="692" y="899"/>
      <point x="594" y="904"/>
      <point x="552" y="904" type="curve" smooth="yes"/>
      <point x="237" y="904"/>
      <point x="77" y="759"/>
      <point x="77" y="482" type="curve" smooth="yes"/>
      <point x="77" y="169"/>
      <point x="298" y="27"/>
      <point x="576" y="27" type="curve" smooth="yes"/>
      <point x="723" y="27"/>
      <point x="873" y="61"/>
      <point x="972" y="121" type="curve"/>
      <point x="927" y="253" type="line"/>
      <point x="823" y="204"/>
      <point x="701" y="168"/>
      <point x="573" y="168" type="curve" smooth="yes"/>
      <point x="348" y="168"/>
      <point x="240" y="259"/>
      <point x="241" y="476" type="curve" smooth="yes"/>
      <point x="241" y="683"/>
      <point x="348" y="759"/>
      <point x="603" y="764" type="curve" smooth="yes"/>
      <point x="671" y="765"/>
      <point x="799" y="760"/>
      <point x="854" y="758" type="curve"/>
      <point x="854" y="1167" type="line"/>
    </contour>
    <contour>
      <point x="-15" y="1262" type="line"/>
      <point x="-15" y="1129" type="line"/>
      <point x="1031" y="1129" type="line"/>
      <point x="1031" y="1262" type="line"/>
    </contour>
    <contour>
      <point x="66" y="58" type="move" name="nukta"/>
    </contour>
    <contour>
      <point x="779" y="1168" type="move" name="top"/>
    </contour>
    <contour>
      <point x="555" y="1168" type="move" name="topcandra"/>
    </contour>
    <contour>
      <point x="592" y="70" type="move" name="bottom"/>
    </contour>
  </outline>
</glyph>
<glyph name="ddha-deva" format="1">
  <advance width="1074"/>
  <unicode hex="0922"/>
  <outline>
    <contour>
      <point x="698" y="1167" type="line"/>
      <point x="698" y="848" type="line"/>
      <point x="770" y="882" type="line"/>
      <point x="701" y="899"/>
      <point x="608" y="903"/>
      <point x="552" y="904" type="curve" smooth="yes"/>
      <point x="237" y="904"/>
      <point x="77" y="766"/>
      <point x="77" y="487" type="curve" smooth="yes"/>
      <point x="77" y="182"/>
      <point x="281" y="37"/>
      <point x="560" y="37" type="curve" smooth="yes"/>
      <point x="774" y="37"/>
      <point x="1011" y="118"/>
      <point x="1011" y="348" type="curve" smooth="yes"/>
      <point x="1011" y="505"/>
      <point x="905" y="580"/>
      <point x="757" y="580" type="curve" smooth="yes"/>
      <point x="589" y="580"/>
      <point x="522" y="475"/>
      <point x="522" y="383" type="curve" smooth="yes"/>
      <point x="522" y="274"/>
      <point x="574" y="208"/>
      <point x="662" y="141" type="curve"/>
      <point x="769" y="168" type="line"/>
      <point x="698" y="232"/>
      <point x="659" y="279"/>
      <point x="659" y="353" type="curve" smooth="yes"/>
      <point x="659" y="407"/>
      <point x="685" y="461"/>
      <point x="766" y="461" type="curve" smooth="yes"/>
      <point x="828" y="461"/>
      <point x="877" y="438"/>
      <point x="877" y="359" type="curve" smooth="yes"/>
      <point x="877" y="243"/>
      <point x="784" y="169"/>
      <point x="589" y="167" type="curve" smooth="yes"/>
      <point x="341" y="164"/>
      <point x="241" y="250"/>
      <point x="241" y="477" type="curve" smooth="yes"/>
      <point x="241" y="691"/>
      <point x="351" y="763"/>
      <point x="603" y="765" type="curve" smooth="yes"/>
      <point x="657" y="765"/>
      <point x="784" y="762"/>
      <point x="854" y="759" type="curve"/>
      <point x="854" y="1167" type="line"/>
    </contour>
    <contour>
      <point x="-15" y="1262" type="line"/>
      <point x="-15" y="1129" type="line"/>
      <point x="1089" y="1129" type="line"/>
      <point x="1089" y="1262" type="line"/>
    </contour>
    <contour>
      <point x="71" y="58" type="move" name="nukta"/>
    </contour>
    <contour>
      <point x="775" y="1168" type="move" name="top"/>
    </contour>
    <contour>
      <point x="559" y="1168" type="move" name="topcandra"/>
    </contour>
    <contour>
      <point x="572" y="75" type="move" name="bottom"/>
    </contour>
  </outline>
</glyph>
<glyph name="dha-deva" format="1">
  <advance width="1255"/>
  <unicode hex="0927"/>
  <outline>
    <contour>
      <point x="246" y="830"/>
      <point x="142" y="670"/>
      <point x="142" y="516" type="curve" smooth="yes"/>
      <point x="142" y="332"/>
      <point x="265" y="209"/>
      <point x="480" y="209" type="curve" smooth="yes"/>
      <point x="669" y="209"/>
      <point x="842" y="284"/>
      <point x="958" y="415" type="curve"/>
      <point x="929" y="579" type="line"/>
      <point x="822" y="428"/>
      <point x="653" y="348"/>
      <point x="487" y="348" type="curve" smooth="yes"/>
      <point x="358" y="348"/>
      <point x="303" y="407"/>
      <point x="303" y="512" type="curve" smooth="yes"/>
      <point x="303" y="634"/>
      <point x="384" y="694"/>
      <point x="599" y="702" type="curve"/>
      <point x="594" y="835" type="line"/>
    </contour>
    <contour>
      <point x="276" y="1280"/>
      <point x="89" y="1213"/>
      <point x="89" y="1017" type="curve" smooth="yes"/>
      <point x="89" y="896"/>
      <point x="163" y="798"/>
      <point x="362" y="725" type="curve"/>
      <point x="456" y="786" type="line"/>
      <point x="301" y="843"/>
      <point x="251" y="912"/>
      <point x="252" y="1000" type="curve" smooth="yes"/>
      <point x="253" y="1115"/>
      <point x="345" y="1146"/>
      <point x="448" y="1147" type="curve" smooth="yes"/>
      <point x="490" y="1147"/>
      <point x="540" y="1143"/>
      <point x="591" y="1134" type="curve"/>
      <point x="611" y="1260" type="line"/>
      <point x="563" y="1273"/>
      <point x="493" y="1281"/>
      <point x="437" y="1280" type="curve" smooth="yes"/>
    </contour>
    <contour>
      <point x="898" y="1208" type="line"/>
      <point x="898" y="1" type="line"/>
      <point x="1055" y="1" type="line"/>
      <point x="1055" y="1208" type="line"/>
    </contour>
    <contour>
      <point x="757" y="1262" type="line"/>
      <point x="757" y="1129" type="line"/>
      <point x="1271" y="1129" type="line"/>
      <point x="1271" y="1262" type="line"/>
    </contour>
    <contour>
      <point x="269" y="58" type="move" name="nukta"/>
    </contour>
    <contour>
      <point x="977" y="1168" type="move" name="top"/>
    </contour>
    <contour>
      <point x="682" y="1168" type="move" name="topcandra"/>
    </contour>
    <contour>
      <point x="977" y="28" type="move" name="bottom"/>
    </contour>
  </outline>
</glyph>
<glyph name="nukta-deva" format="1">
  <advance width="570"/>
  <unicode hex="093C"/>
  <outline>
    <contour>
      <point x="210" y="120"/>
      <point x="181" y="93"/>
      <point x="181" y="28" type="curve" smooth="yes"/>
      <point x="181" y="-37"/>
      <point x="210" y="-64"/>
      <point x="275" y="-64" type="curve" smooth="yes"/>
      <point x="340" y="-64"/>
      <point x="368" y="-37"/>
      <point x="368" y="28" type="curve" smooth="yes"/>
      <point x="368" y="93"/>
      <point x="340" y="120"/>
      <point x="275" y="120" type="curve" smooth="yes"/>
    </contour>
    <contour>
      <point x="275" y="28" type="move" name="_nukta"/>
    </contour>
  </outline>
</glyph>
<glyph name="uuMatra-deva" format="1">
  <advance width="540"/>
  <unicode hex="0942"/>
  <outline>
    <contour>
      <point x="411" y="-335" type="line"/>
      <point x="347" y="-360"/>
      <point x="294" y="-371"/>
      <point x="245" y="-371" type="curve" smooth="yes"/>
      <point x="161" y="-371"/>
      <point x="106" y="-341"/>
      <point x="106" y="-239" type="curve" smooth="yes"/>
      <point x="106" y="-155"/>
      <point x="162" y="-99"/>
      <point x="276" y="-99" type="curve" smooth="yes"/>
      <point x="395" y="-99"/>
      <point x="509" y="-141"/>
      <point x="681" y="-336" type="curve"/>
      <point x="759" y="-261" type="line"/>
      <point x="568" y="-20"/>
      <point x="417" y="37"/>
      <point x="275" y="37" type="curve" smooth="yes"/>
      <point x="74" y="37"/>
      <point x="-40" y="-81"/>
      <point x="-40" y="-239" type="curve" smooth="yes"/>
      <point x="-40" y="-382"/>
      <point x="59" y="-501"/>
      <point x="245" y="-501" type="curve" smooth="yes"/>
      <point x="301" y="-501"/>
      <point x="378" y="-490"/>
      <point x="452" y="-453" type="curve"/>
    </contour>
    <contour>
      <point x="270" y="28" type="move" name="_bottom"/>
    </contour>
  </outline>
</glyph>
<glyph name="auMatra-deva" format="1">
  <advance width="557"/>
  <unicode hex="094C"/>
  <outline>
    <component base="aaMatra-deva"/>
    <component base="aiMatra-deva" xOffset="36"/>
    <contour>
      <point x="429" y="1168" type="move" name="top"/>
    </contour>
    <contour>
      <point x="565" y="1210" type="move" name="topcandra"/>
    </contour>
  </outline>
</glyph>
<glyph name="eight-deva" format="1">
  <advance width="829"/>
  <unicode hex="096E"/>
  <outline>
    <contour>
      <point x="287" y="979"/>
      <point x="87" y="710"/>
      <point x="87" y="458" type="curve" smooth="yes"/>
      <point x="86" y="277"/>
      <point x="184" y="44"/>
      <point x="504" y="41" type="curve" smooth="yes"/>
      <point x="622" y="40"/>
      <point x="750" y="73"/>
      <point x="817" y="113" type="curve"/>
      <point x="772" y="242" type="line"/>
      <point x="681" y="205"/>
      <point x="588" y="186"/>
      <point x="511" y="186" type="curve" smooth="yes"/>
      <point x="350" y="187"/>
      <point x="246" y="273"/>
      <point x="246" y="455" type="curve" smooth="yes"/>
      <point x="246" y="672"/>
      <point x="400" y="866"/>
      <point x="733" y="1195" type="curve"/>
      <point x="620" y="1291" type="line"/>
    </contour>
  </outline>
</glyph>
<glyph name="ooe-deva" format="1">
  <advance width="1957"/>
  <unicode hex="0974"/>
  <outline>
    <contour>
      <point x="1587" y="1106" type="line"/>
      <point x="1742" y="1106" type="line"/>
      <point x="1742" y="1507" type="line"/>
      <point x="1587" y="1507" type="line"/>
    </contour>
    <component base="aa-deva"/>
  </outline>
</glyph>
<glyph name="c.sups" format="1">
  <advance width="626"/>
  <unicode hex="1D9C"/>
  <outline>
    <contour>
      <point x="377" y="516" type="curve" name="hr00" smooth="yes"/>
      <point x="479" y="516"/>
      <point x="547" y="555"/>
      <point x="594" y="594" type="curve"/>
      <point x="541" y="677" type="line"/>
      <point x="502" y="646"/>
      <point x="459" y="620"/>
      <point x="389" y="620" type="curve" smooth="yes"/>
      <point x="271" y="620"/>
      <point x="189" y="718"/>
      <point x="189" y="862" type="curve" smooth="yes"/>
      <point x="189" y="1004"/>
      <point x="275" y="1105"/>
      <point x="389" y="1105" type="curve" smooth="yes"/>
      <point x="449" y="1105"/>
      <point x="481" y="1086"/>
      <point x="522" y="1054" type="curve"/>
      <point x="584" y="1137" type="line"/>
      <point x="543" y="1171"/>
      <point x="477" y="1208"/>
      <point x="381" y="1208" type="curve" smooth="yes"/>
      <point x="211" y="1208"/>
      <point x="61" y="1081"/>
      <point x="61" y="862" type="curve" smooth="yes"/>
      <point x="61" y="641"/>
      <point x="195" y="516"/>
    </contour>
  </outline>
</glyph>
<glyph name="z.sups" format="1">
  <advance width="593"/>
  <unicode hex="1DBB"/>
  <outline>
    <contour>
      <point x="43" y="532" type="line" name="hr00"/>
      <point x="556" y="532" type="line"/>
      <point x="556" y="634" type="line"/>
      <point x="203" y="634" type="line"/>
      <point x="546" y="1120" type="line"/>
      <point x="546" y="1192" type="line"/>
      <point x="84" y="1192" type="line"/>
      <point x="84" y="1091" type="line"/>
      <point x="388" y="1091" type="line"/>
      <point x="43" y="601" type="line"/>
    </contour>
  </outline>
</glyph>
<glyph name="n.sups" format="1">
  <advance width="755"/>
  <unicode hex="207F"/>
  <outline>
    <contour>
      <point x="106" y="532" type="line" name="hr01"/>
      <point x="232" y="532" type="line"/>
      <point x="232" y="1004" type="line" name="hr02"/>
      <point x="298" y="1070"/>
      <point x="352" y="1101"/>
      <point x="408" y="1101" type="curve" smooth="yes"/>
      <point x="508" y="1101"/>
      <point x="530" y="1035"/>
      <point x="530" y="930" type="curve" smooth="yes"/>
      <point x="530" y="532" type="line"/>
      <point x="656" y="532" type="line"/>
      <point x="656" y="948" type="line"/>
      <point x="656" y="1102"/>
      <point x="601" y="1208"/>
      <point x="448" y="1208" type="curve" smooth="yes"/>
      <point x="359" y="1208"/>
      <point x="284" y="1159"/>
      <point x="226" y="1098" type="curve"/>
      <point x="218" y="1098" type="line"/>
      <point x="206" y="1192" type="line" name="hr03"/>
      <point x="106" y="1192" type="line"/>
    </contour>
  </outline>
</glyph>
<glyph name="three.subs" format="1">
  <advance width="751"/>
  <unicode hex="2083"/>
  <outline>
    <contour>
      <point x="72" y="-292" type="line" name="hr01"/>
      <point x="133" y="-381"/>
      <point x="240" y="-450"/>
      <point x="369" y="-450" type="curve" smooth="yes"/>
      <point x="524" y="-450"/>
      <point x="652" y="-357"/>
      <point x="652" y="-210" type="curve" smooth="yes"/>
      <point x="652" y="-103"/>
      <point x="570" y="-35"/>
      <point x="480" y="-11" type="curve"/>
      <point x="562" y="26"/>
      <point x="620" y="89"/>
      <point x="620" y="186" type="curve" name="hr02" smooth="yes"/>
      <point x="620" y="318"/>
      <point x="504" y="398"/>
      <point x="367" y="398" type="curve" smooth="yes"/>
      <point x="256" y="398"/>
      <point x="174" y="347"/>
      <point x="104" y="268" type="curve"/>
      <point x="184" y="199" type="line"/>
      <point x="229" y="256"/>
      <point x="287" y="295"/>
      <point x="346" y="295" type="curve" smooth="yes"/>
      <point x="434" y="295"/>
      <point x="493" y="246"/>
      <point x="493" y="170" type="curve" smooth="yes"/>
      <point x="493" y="88"/>
      <point x="412" y="24"/>
      <point x="274" y="24" type="curve"/>
      <point x="274" y="-59" type="line"/>
      <point x="430" y="-59"/>
      <point x="523" y="-109"/>
      <point x="523" y="-202" type="curve" name="hr03" smooth="yes"/>
      <point x="523" y="-292"/>
      <point x="449" y="-345"/>
      <point x="362" y="-345" type="curve" smooth="yes"/>
      <point x="279" y="-345"/>
      <point x="209" y="-298"/>
      <point x="160" y="-226" type="curve"/>
    </contour>
  </outline>
</glyph>
<glyph name="arrowdown" format="1">
  <advance width="1268"/>
  <unicode hex="2193"/>
  <outline>
    <contour>
      <point x="637" y="-51" type="line" name="hr00"/>
      <point x="1182" y="508" type="line"/>
      <point x="1086" y="593" type="line"/>
      <point x="701" y="179" type="line"/>
      <point x="701" y="1079" type="line"/>
      <point x="564" y="1079" type="line"/>
      <point x="564" y="179" type="line"/>
      <point x="179" y="593" type="line"/>
      <point x="86" y="508" type="line"/>
      <point x="629" y="-51" type="line"/>
    </contour>
  </outline>
</glyph>
<glyph name="uni2219" format="1">
  <advance width="1027"/>
  <unicode hex="2219"/>
  <outline>
    <contour>
      <point x="385" y="666" type="curve" smooth="yes"/>
      <point x="385" y="590"/>
      <point x="440" y="540"/>
      <point x="506" y="540" type="curve" smooth="yes"/>
      <point x="572" y="540"/>
      <point x="628" y="590"/>
      <point x="628" y="666" type="curve" smooth="yes"/>
      <point x="628" y="742"/>
      <point x="572" y="794"/>
      <point x="506" y="794" type="curve" smooth="yes"/>
      <point x="440" y="794"/>
      <point x="385" y="742"/>
    </contour>
  </outline>
</glyph>
<glyph name="notequal" format="1">
  <advance width="1017"/>
  <unicode hex="2260"/>
  <outline>
    <contour>
      <point x="125" y="134" type="line" name="hr00"/>
      <point x="247" y="134" type="line"/>
      <point x="402" y="394" type="line"/>
      <point x="947" y="394" type="line"/>
      <point x="947" y="520" type="line"/>
      <point x="476" y="520" type="line"/>
      <point x="663" y="831" type="line"/>
      <point x="947" y="831" type="line"/>
      <point x="947" y="957" type="line"/>
      <point x="736" y="957" type="line"/>
      <point x="892" y="1218" type="line"/>
      <point x="770" y="1218" type="line"/>
      <point x="614" y="957" type="line"/>
      <point x="70" y="957" type="line"/>
      <point x="70" y="831" type="line"/>
      <point x="541" y="831" type="line"/>
      <point x="354" y="520" type="line"/>
      <point x="70" y="520" type="line"/>
      <point x="70" y="394" type="line"/>
      <point x="281" y="394" type="line"/>
    </contour>
  </outline>
</glyph>
<glyph name="uni25C0" format="1">
  <advance width="1168"/>
  <unicode hex="25C0"/>
  <outline>
    <contour>
      <point x="37" y="573" type="line"/>
      <point x="1048" y="39" type="line"/>
      <point x="1052" y="39" type="line"/>
      <point x="1052" y="1114" type="line"/>
      <point x="1048" y="1114" type="line"/>
      <point x="37" y="582" type="line"/>
    </contour>
  </outline>
</glyph>
<glyph name="fl" format="1">
  <advance width="1117"/>
  <unicode hex="FB02"/>
  <outline>
    <contour>
      <point x="197" y="995" type="line" name="hr01"/>
      <point x="61" y="985" type="line"/>
      <point x="61" y="859" type="line"/>
      <point x="197" y="859" type="line"/>
      <point x="197" y="0" type="line"/>
      <point x="363" y="0" type="line"/>
      <point x="363" y="859" type="line"/>
      <point x="574" y="859" type="line"/>
      <point x="574" y="995" type="line"/>
      <point x="363" y="995" type="line"/>
      <point x="363" y="1154" type="line"/>
      <point x="363" y="1281"/>
      <point x="408" y="1348"/>
      <point x="503" y="1348" type="curve" smooth="yes"/>
      <point x="540" y="1348"/>
      <point x="579" y="1339"/>
      <point x="615" y="1323" type="curve"/>
      <point x="651" y="1450" type="line"/>
      <point x="606" y="1468"/>
      <point x="548" y="1483"/>
      <point x="486" y="1483" type="curve" smooth="yes"/>
      <point x="289" y="1483"/>
      <point x="197" y="1357"/>
      <point x="197" y="1154" type="curve" smooth="yes"/>
    </contour>
    <contour>
      <point x="1015" y="117" type="line" name="hr02"/>
      <point x="996" y="113"/>
      <point x="988" y="113"/>
      <point x="978" y="113" type="curve" smooth="yes"/>
      <point x="953" y="113"/>
      <point x="931" y="133"/>
      <point x="931" y="186" type="curve" smooth="yes"/>
      <point x="931" y="1458" type="line"/>
      <point x="765" y="1458" type="line"/>
      <point x="765" y="199" type="line"/>
      <point x="765" y="54"/>
      <point x="816" y="-25"/>
      <point x="942" y="-25" type="curve" smooth="yes"/>
      <point x="984" y="-25"/>
      <point x="1013" y="-18"/>
      <point x="1037" y="-8" type="curve"/>
    </contour>
  </outline>
</glyph>
<glyph name="b_j_ya-deva" format="1">
  <advance width="2709"/>
  <outline>
    <contour>
      <point x="308" y="940"/>
      <point x="80" y="891"/>
      <point x="80" y="566" type="curve" smooth="yes"/>
      <point x="80" y="366"/>
      <point x="174" y="198"/>
      <point x="422" y="198" type="curve" smooth="yes"/>
      <point x="566" y="198"/>
      <point x="722" y="257"/>
      <point x="833" y="418" type="curve"/>
      <point x="803" y="577" type="line"/>
      <point x="710" y="421"/>
      <point x="602" y="323"/>
      <point x="443" y="323" type="curve" smooth="yes"/>
      <point x="301" y="323"/>
      <point x="234" y="393"/>
      <point x="234" y="560" type="curve" smooth="yes"/>
      <point x="234" y="783"/>
      <point x="346" y="813"/>
      <point x="481" y="813" type="curve" smooth="yes"/>
      <point x="542" y="813"/>
      <point x="580" y="810"/>
      <point x="620" y="795" type="curve"/>
      <point x="652" y="911" type="line"/>
      <point x="597" y="933"/>
      <point x="544" y="940"/>
      <point x="481" y="940" type="curve" smooth="yes"/>
    </contour>
    <contour>
      <point x="228" y="779" type="line"/>
      <point x="696" y="306" type="line"/>
      <point x="774" y="388" type="line"/>
      <point x="306" y="862" type="line"/>
    </contour>
    <contour>
      <point x="1167" y="793" type="line"/>
      <point x="1290" y="733"/>
      <point x="1358" y="653"/>
      <point x="1358" y="533" type="curve" smooth="yes"/>
      <point x="1358" y="423"/>
      <point x="1295" y="353"/>
      <point x="1172" y="352" type="curve" smooth="yes"/>
      <point x="916" y="349"/>
      <point x="861" y="671"/>
      <point x="836" y="887" type="curve"/>
      <point x="709" y="870" type="line"/>
      <point x="734" y="485"/>
      <point x="858" y="205"/>
      <point x="1179" y="205" type="curve" smooth="yes"/>
      <point x="1383" y="205"/>
      <point x="1512" y="324"/>
      <point x="1512" y="505" type="curve" smooth="yes"/>
      <point x="1512" y="656"/>
      <point x="1439" y="741"/>
      <point x="1299" y="814" type="curve"/>
      <point x="1217" y="901" type="line"/>
    </contour>
    <contour>
      <point x="1216" y="901" type="line"/>
      <point x="1278" y="772" type="line"/>
      <point x="1900" y="772" type="line"/>
      <point x="1900" y="901" type="line"/>
    </contour>
    <contour>
      <point x="-15" y="1262" type="line"/>
      <point x="-15" y="1129" type="line"/>
      <point x="1608" y="1129" type="line"/>
      <point x="1608" y="1262" type="line"/>
    </contour>
    <component base="ya-deva" xOffset="1561"/>
  </outline>
</glyph>
<glyph name="bh-deva" format="1">
  <advance width="641"/>
  <outline>
    <contour>
      <point x="163" y="1283"/>
      <point x="115" y="1273"/>
      <point x="73" y="1257" type="curve"/>
      <point x="95" y="1128" type="line"/>
      <point x="124" y="1135"/>
      <point x="161" y="1144"/>
      <point x="199" y="1144" type="curve" smooth="yes"/>
      <point x="262" y="1144"/>
      <point x="294" y="1120"/>
      <point x="294" y="1039" type="curve" smooth="yes"/>
      <point x="294" y="550" type="line"/>
      <point x="450" y="550" type="line"/>
      <point x="450" y="1035" type="line" smooth="yes"/>
      <point x="450" y="1153"/>
      <point x="431" y="1283"/>
      <point x="225" y="1283" type="curve" smooth="yes"/>
    </contour>
    <contour>
      <point x="319" y="628" type="line"/>
      <point x="144" y="607" type="line"/>
      <point x="144" y="497" type="line"/>
      <point x="319" y="302" type="line"/>
      <point x="427" y="304"/>
      <point x="449" y="360"/>
      <point x="449" y="426" type="curve" smooth="yes"/>
      <point x="449" y="628" type="line"/>
    </contour>
    <contour>
      <point x="299" y="621" type="line"/>
      <point x="299" y="483" type="line"/>
      <point x="861" y="483" type="line"/>
      <point x="861" y="621" type="line"/>
    </contour>
  </outline>
</glyph>
<glyph name="comma.dnom" format="1">
  <advance width="361"/>
  <outline>
    <contour>
      <point x="100" y="-238" type="line" name="hr01"/>
      <point x="220" y="-193"/>
      <point x="294" y="-92"/>
      <point x="294" y="29" type="curve" smooth="yes"/>
      <point x="294" y="126"/>
      <point x="253" y="177"/>
      <point x="185" y="177" type="curve" name="hr02" smooth="yes"/>
      <point x="135" y="177"/>
      <point x="90" y="140"/>
      <point x="90" y="83" type="curve" smooth="yes"/>
      <point x="90" y="27"/>
      <point x="135" y="-2"/>
      <point x="182" y="-2" type="curve" name="hr03" smooth="yes"/>
      <point x="188" y="-2"/>
      <point x="193" y="-2"/>
      <point x="199" y="0" type="curve"/>
      <point x="197" y="-78"/>
      <point x="147" y="-131"/>
      <point x="68" y="-162" type="curve"/>
    </contour>
  </outline>
</glyph>
<glyph name="dd_na-deva" format="1">
  <advance width="1051"/>
  <outline>
    <contour>
      <point x="799" y="165"/>
      <point x="983" y="233"/>
      <point x="983" y="449" type="curve" smooth="yes"/>
      <point x="983" y="647"/>
      <point x="828" y="673"/>
      <point x="668" y="672" type="curve" smooth="yes"/>
      <point x="555" y="671"/>
      <point x="413" y="654"/>
      <point x="339" y="639" type="curve"/>
      <point x="361" y="626" type="line"/>
      <point x="344" y="640"/>
      <point x="313" y="701"/>
      <point x="313" y="762" type="curve" smooth="yes"/>
      <point x="313" y="829"/>
      <point x="344" y="851"/>
      <point x="464" y="851" type="curve" smooth="yes"/>
      <point x="810" y="851" type="line"/>
      <point x="793" y="982" type="line"/>
      <point x="428" y="982" type="line" smooth="yes"/>
      <point x="254" y="982"/>
      <point x="177" y="927"/>
      <point x="177" y="806" type="curve" smooth="yes"/>
      <point x="177" y="701"/>
      <point x="235" y="583"/>
      <point x="300" y="530" type="curve"/>
      <point x="328" y="510"/>
      <point x="346" y="509"/>
      <point x="363" y="511" type="curve" smooth="yes"/>
      <point x="412" y="516"/>
      <point x="566" y="538"/>
      <point x="680" y="538" type="curve" smooth="yes"/>
      <point x="803" y="538"/>
      <point x="840" y="507"/>
      <point x="840" y="434" type="curve" smooth="yes"/>
      <point x="840" y="336"/>
      <point x="757" y="293"/>
      <point x="594" y="293" type="curve" smooth="yes"/>
      <point x="389" y="293"/>
      <point x="285" y="358"/>
      <point x="176" y="469" type="curve"/>
      <point x="97" y="393" type="line"/>
      <point x="238" y="226"/>
      <point x="404" y="170"/>
      <point x="585" y="165" type="curve" smooth="yes"/>
    </contour>
    <contour>
      <point x="428" y="-349"/>
      <point x="445" y="-280"/>
      <point x="445" y="-196" type="curve" smooth="yes"/>
      <point x="445" y="-9" type="line"/>
      <point x="190" y="-9" type="line"/>
      <point x="190" y="-140" type="line"/>
      <point x="333" y="-349" type="line"/>
    </contour>
    <contour>
      <point x="826" y="-142" type="line"/>
      <point x="826" y="-9" type="line"/>
      <point x="309" y="-9" type="line"/>
      <point x="309" y="-142" type="line"/>
    </contour>
    <contour>
      <point x="876" y="-504" type="line"/>
      <point x="876" y="273" type="line"/>
      <point x="727" y="273" type="line"/>
      <point x="727" y="-504" type="line"/>
    </contour>
    <contour>
      <point x="1066" y="1129" type="line"/>
      <point x="1066" y="1262" type="line"/>
      <point x="-15" y="1262" type="line"/>
      <point x="-15" y="1129" type="line"/>
    </contour>
    <contour>
      <point x="872" y="851" type="line"/>
      <point x="872" y="1217" type="line"/>
      <point x="719" y="1217" type="line"/>
      <point x="719" y="851" type="line"/>
    </contour>
    <contour>
      <point x="800" y="1168" type="move" name="top"/>
    </contour>
    <contour>
      <point x="808" y="-484" type="move" name="bottom"/>
    </contour>
    <contour>
      <point x="542" y="1168" type="move" name="topcandra"/>
    </contour>
  </outline>
</glyph>
<glyph name="dd_ya-deva" format="1">
  <advance width="2138"/>
  <outline>
    <contour>
      <point x="971" y="1262" type="line"/>
      <point x="971" y="1129" type="line"/>
      <point x="2152" y="1129" type="line"/>
      <point x="2152" y="1262" type="line"/>
    </contour>
    <contour>
      <point x="1262" y="793"/>
      <point x="1302" y="781"/>
      <point x="1302" y="734" type="curve" smooth="yes"/>
      <point x="1302" y="672"/>
      <point x="1229" y="618"/>
      <point x="1042" y="568" type="curve"/>
      <point x="1098" y="296"/>
      <point x="1254" y="148"/>
      <point x="1485" y="148" type="curve" smooth="yes"/>
      <point x="1612" y="148"/>
      <point x="1718" y="194"/>
      <point x="1805" y="285" type="curve"/>
      <point x="1812" y="480" type="line"/>
      <point x="1729" y="343"/>
      <point x="1589" y="290"/>
      <point x="1474" y="290" type="curve" smooth="yes"/>
      <point x="1335" y="290"/>
      <point x="1228" y="369"/>
      <point x="1192" y="529" type="curve"/>
      <point x="1172" y="470" type="line"/>
      <point x="1267" y="499"/>
      <point x="1447" y="566"/>
      <point x="1447" y="744" type="curve" smooth="yes"/>
      <point x="1447" y="878"/>
      <point x="1345" y="923"/>
      <point x="1153" y="923" type="curve" smooth="yes"/>
      <point x="674" y="923" type="line"/>
      <point x="673" y="793" type="line"/>
      <point x="1171" y="793" type="line" smooth="yes"/>
    </contour>
    <contour>
      <point x="1781" y="1156" type="line"/>
      <point x="1781" y="0" type="line"/>
      <point x="1937" y="0" type="line"/>
      <point x="1937" y="1156" type="line"/>
    </contour>
    <contour>
      <point x="371" y="925" type="line" smooth="yes"/>
      <point x="190" y="923"/>
      <point x="107" y="849"/>
      <point x="107" y="714" type="curve" smooth="yes"/>
      <point x="107" y="600"/>
      <point x="159" y="466"/>
      <point x="221" y="411" type="curve" smooth="yes"/>
      <point x="246" y="391"/>
      <point x="271" y="379"/>
      <point x="306" y="384" type="curve" smooth="yes"/>
      <point x="364" y="392"/>
      <point x="548" y="413"/>
      <point x="639" y="413" type="curve" smooth="yes"/>
      <point x="767" y="413"/>
      <point x="808" y="365"/>
      <point x="805" y="279" type="curve" smooth="yes"/>
      <point x="802" y="178"/>
      <point x="730" y="101"/>
      <point x="526" y="101" type="curve" smooth="yes"/>
      <point x="340" y="101"/>
      <point x="218" y="180"/>
      <point x="108" y="269" type="curve"/>
      <point x="41" y="176" type="line"/>
      <point x="162" y="48"/>
      <point x="335" y="-37"/>
      <point x="538" y="-37" type="curve" smooth="yes"/>
      <point x="773" y="-37"/>
      <point x="951" y="73"/>
      <point x="951" y="299" type="curve" smooth="yes"/>
      <point x="951" y="515"/>
      <point x="803" y="555"/>
      <point x="649" y="555" type="curve" smooth="yes"/>
      <point x="528" y="555"/>
      <point x="334" y="534"/>
      <point x="272" y="518" type="curve"/>
      <point x="300" y="505" type="line"/>
      <point x="268" y="546"/>
      <point x="249" y="615"/>
      <point x="249" y="672" type="curve" smooth="yes"/>
      <point x="249" y="753"/>
      <point x="278" y="793"/>
      <point x="406" y="793" type="curve" smooth="yes"/>
      <point x="766" y="793" type="line"/>
      <point x="749" y="925" type="line"/>
    </contour>
    <contour>
      <point x="-7" y="1262" type="line"/>
      <point x="-7" y="1129" type="line"/>
      <point x="1047" y="1129" type="line"/>
      <point x="1047" y="1262" type="line"/>
    </contour>
    <contour>
      <point x="670" y="1184" type="line"/>
      <point x="670" y="793" type="line"/>
      <point x="825" y="793" type="line"/>
      <point x="825" y="1184" type="line"/>
    </contour>
    <contour>
      <point x="530" y="-185" type="move" name="nukta"/>
    </contour>
    <contour>
      <point x="747" y="1168" type="move" name="top"/>
    </contour>
    <contour>
      <point x="549" y="1168" type="move" name="topcandra"/>
    </contour>
    <contour>
      <point x="537" y="-8" type="move" name="bottom"/>
    </contour>
  </outline>
</glyph>
<glyph name="dha_ra-deva" format="1">
  <advance width="1254"/>
  <outline>
    <contour>
      <point x="256" y="66" type="line"/>
      <point x="346" y="-54" type="line"/>
      <point x="927" y="377" type="line"/>
      <point x="894" y="476" type="line"/>
    </contour>
    <component base="dha-deva" xOffset="-2"/>
    <contour>
      <point x="978" y="1168" type="move" name="top"/>
    </contour>
    <contour>
      <point x="975" y="28" type="move" name="bottom"/>
    </contour>
    <contour>
      <point x="685" y="1168" type="move" name="topcandra"/>
    </contour>
  </outline>
</glyph>
<glyph name="eight.dnom" format="1">
  <advance width="811"/>
  <outline>
    <contour>
      <point x="244" y="211" type="curve" name="hr01" smooth="yes"/>
      <point x="244" y="276"/>
      <point x="283" y="334"/>
      <point x="356" y="378" type="curve"/>
      <point x="464" y="332"/>
      <point x="563" y="307"/>
      <point x="563" y="209" type="curve" smooth="yes"/>
      <point x="563" y="133"/>
      <point x="491" y="71"/>
      <point x="403" y="71" type="curve" smooth="yes"/>
      <point x="308" y="71"/>
      <point x="244" y="139"/>
    </contour>
    <contour>
      <point x="450" y="456" type="curve" name="hr02"/>
      <point x="354" y="487"/>
      <point x="275" y="528"/>
      <point x="275" y="610" type="curve" smooth="yes"/>
      <point x="275" y="677"/>
      <point x="332" y="724"/>
      <point x="403" y="724" type="curve" smooth="yes"/>
      <point x="476" y="724"/>
      <point x="537" y="679"/>
      <point x="537" y="608" type="curve" smooth="yes"/>
      <point x="537" y="555"/>
      <point x="509" y="502"/>
    </contour>
    <contour>
      <point x="122" y="199" type="curve" name="hr03" smooth="yes"/>
      <point x="122" y="78"/>
      <point x="235" y="-25"/>
      <point x="403" y="-25" type="curve" smooth="yes"/>
      <point x="565" y="-25"/>
      <point x="684" y="76"/>
      <point x="684" y="205" type="curve" smooth="yes"/>
      <point x="684" y="301"/>
      <point x="628" y="365"/>
      <point x="535" y="412" type="curve"/>
      <point x="535" y="420" type="line"/>
      <point x="590" y="457"/>
      <point x="658" y="520"/>
      <point x="658" y="612" type="curve" name="hr04" smooth="yes"/>
      <point x="658" y="741"/>
      <point x="546" y="823"/>
      <point x="403" y="823" type="curve" smooth="yes"/>
      <point x="266" y="823"/>
      <point x="155" y="739"/>
      <point x="155" y="612" type="curve" smooth="yes"/>
      <point x="155" y="528"/>
      <point x="204" y="475"/>
      <point x="274" y="430" type="curve"/>
      <point x="274" y="422" type="line"/>
      <point x="196" y="377"/>
      <point x="122" y="299"/>
    </contour>
  </outline>
</glyph>
<glyph name="eight.tnum" format="1">
  <advance width="1017"/>
  <outline>
    <contour>
      <point x="234" y="360" type="curve" name="hr01" smooth="yes"/>
      <point x="234" y="479"/>
      <point x="312" y="586"/>
      <point x="417" y="656" type="curve"/>
      <point x="606" y="580"/>
      <point x="773" y="508"/>
      <point x="773" y="340" type="curve" smooth="yes"/>
      <point x="773" y="204"/>
      <point x="688" y="99"/>
      <point x="516" y="99" type="curve" smooth="yes"/>
      <point x="355" y="99"/>
      <point x="234" y="214"/>
    </contour>
    <contour>
      <point x="604" y="733" type="curve" name="hr02"/>
      <point x="445" y="794"/>
      <point x="302" y="870"/>
      <point x="302" y="1026" type="curve" smooth="yes"/>
      <point x="302" y="1153"/>
      <point x="378" y="1244"/>
      <point x="519" y="1244" type="curve" smooth="yes"/>
      <point x="663" y="1244"/>
      <point x="742" y="1141"/>
      <point x="742" y="1011" type="curve" smooth="yes"/>
      <point x="742" y="915"/>
      <point x="692" y="811"/>
    </contour>
    <contour>
      <point x="84" y="344" type="curve" name="hr03" smooth="yes"/>
      <point x="84" y="137"/>
      <point x="266" y="-25"/>
      <point x="512" y="-25" type="curve" smooth="yes"/>
      <point x="785" y="-25"/>
      <point x="933" y="139"/>
      <point x="933" y="334" type="curve" smooth="yes"/>
      <point x="933" y="510"/>
      <point x="822" y="612"/>
      <point x="706" y="679" type="curve"/>
      <point x="706" y="688" type="line"/>
      <point x="785" y="749"/>
      <point x="886" y="882"/>
      <point x="886" y="1019" type="curve" name="hr04" smooth="yes"/>
      <point x="886" y="1222"/>
      <point x="750" y="1368"/>
      <point x="523" y="1368" type="curve" smooth="yes"/>
      <point x="293" y="1368"/>
      <point x="147" y="1226"/>
      <point x="147" y="1026" type="curve" smooth="yes"/>
      <point x="147" y="889"/>
      <point x="233" y="783"/>
      <point x="330" y="715" type="curve"/>
      <point x="330" y="707" type="line"/>
      <point x="207" y="642"/>
      <point x="84" y="514"/>
    </contour>
  </outline>
</glyph>
<glyph name="five.numr" format="1">
  <advance width="751"/>
  <outline>
    <contour>
      <point x="72" y="678" type="line" name="hr00"/>
      <point x="135" y="588"/>
      <point x="233" y="520"/>
      <point x="375" y="520" type="curve" smooth="yes"/>
      <point x="537" y="520"/>
      <point x="661" y="633"/>
      <point x="661" y="797" type="curve" smooth="yes"/>
      <point x="661" y="969"/>
      <point x="543" y="1065"/>
      <point x="399" y="1065" type="curve" smooth="yes"/>
      <point x="351" y="1065"/>
      <point x="308" y="1053"/>
      <point x="269" y="1034" type="curve"/>
      <point x="292" y="1230" type="line"/>
      <point x="620" y="1230" type="line"/>
      <point x="620" y="1343" type="line"/>
      <point x="184" y="1343" type="line"/>
      <point x="147" y="958" type="line"/>
      <point x="211" y="914" type="line"/>
      <point x="254" y="949"/>
      <point x="299" y="978"/>
      <point x="362" y="978" type="curve" smooth="yes"/>
      <point x="462" y="978"/>
      <point x="531" y="911"/>
      <point x="531" y="801" type="curve" smooth="yes"/>
      <point x="531" y="699"/>
      <point x="461" y="624"/>
      <point x="367" y="624" type="curve" smooth="yes"/>
      <point x="274" y="624"/>
      <point x="211" y="669"/>
      <point x="160" y="743" type="curve"/>
    </contour>
  </outline>
</glyph>
<glyph name="h_va-deva" format="1">
  <advance width="1097"/>
  <outline>
    <contour>
      <point x="323" y="556"/>
      <point x="81" y="472"/>
      <point x="81" y="191" type="curve" smooth="yes"/>
      <point x="81" y="-69"/>
      <point x="311" y="-321"/>
      <point x="779" y="-414" type="curve"/>
      <point x="815" y="-292" type="line"/>
      <point x="411" y="-207"/>
      <point x="232" y="-11"/>
      <point x="232" y="185" type="curve" smooth="yes"/>
      <point x="232" y="366"/>
      <point x="355" y="423"/>
      <point x="561" y="423" type="curve" smooth="yes"/>
      <point x="799" y="423"/>
      <point x="857" y="326"/>
      <point x="858" y="187" type="curve" smooth="yes"/>
      <point x="858" y="105"/>
      <point x="855" y="18"/>
      <point x="837" y="-97" type="curve"/>
      <point x="952" y="-106" type="line"/>
      <point x="976" y="-10"/>
      <point x="985" y="111"/>
      <point x="985" y="176" type="curve" smooth="yes"/>
      <point x="985" y="394"/>
      <point x="865" y="556"/>
      <point x="560" y="556" type="curve" smooth="yes"/>
    </contour>
    <contour>
      <point x="530" y="334"/>
      <point x="430" y="284"/>
      <point x="430" y="152" type="curve" smooth="yes"/>
      <point x="430" y="9"/>
      <point x="536" y="-53"/>
      <point x="648" y="-53" type="curve" smooth="yes"/>
      <point x="758" y="-53"/>
      <point x="850" y="-6"/>
      <point x="889" y="59" type="curve"/>
      <point x="914" y="181" type="line"/>
      <point x="857" y="95"/>
      <point x="766" y="52"/>
      <point x="663" y="52" type="curve" smooth="yes"/>
      <point x="574" y="52"/>
      <point x="554" y="92"/>
      <point x="554" y="142" type="curve" smooth="yes"/>
      <point x="554" y="212"/>
      <point x="605" y="234"/>
      <point x="690" y="234" type="curve" smooth="yes"/>
      <point x="767" y="234"/>
      <point x="829" y="229"/>
      <point x="889" y="216" type="curve"/>
      <point x="894" y="296" type="line"/>
      <point x="812" y="322"/>
      <point x="745" y="334"/>
      <point x="654" y="334" type="curve" smooth="yes"/>
    </contour>
    <contour>
      <point x="686" y="1172" type="line"/>
      <point x="686" y="925" type="line"/>
      <point x="382" y="925" type="line" smooth="yes"/>
      <point x="202" y="925"/>
      <point x="116" y="852"/>
      <point x="116" y="732" type="curve" smooth="yes"/>
      <point x="116" y="638"/>
      <point x="171" y="540"/>
      <point x="259" y="435" type="curve"/>
      <point x="359" y="473" type="line"/>
      <point x="313" y="549"/>
      <point x="273" y="634"/>
      <point x="273" y="695" type="curve" smooth="yes"/>
      <point x="273" y="756"/>
      <point x="309" y="787"/>
      <point x="409" y="787" type="curve" smooth="yes"/>
      <point x="842" y="787" type="line"/>
      <point x="842" y="1172" type="line"/>
    </contour>
    <contour>
      <point x="-15" y="1262" type="line"/>
      <point x="-15" y="1129" type="line"/>
      <point x="1112" y="1129" type="line"/>
      <point x="1112" y="1262" type="line"/>
    </contour>
    <contour>
      <point x="766" y="1168" type="move" name="top"/>
    </contour>
    <contour>
      <point x="766" y="-293" type="move" name="bottom"/>
    </contour>
    <contour>
      <point x="588" y="1168" type="move" name="topcandra"/>
    </contour>
  </outline>
</glyph>
<glyph name="j_j_nya-deva" format="1">
  <advance width="3327"/>
  <outline>
    <contour>
      <point x="2373" y="919"/>
      <point x="2323" y="912"/>
      <point x="2273" y="891" type="curve"/>
      <point x="2301" y="761" type="line"/>
      <point x="2342" y="772"/>
      <point x="2384" y="777"/>
      <point x="2434" y="777" type="curve" smooth="yes"/>
      <point x="2543" y="777"/>
      <point x="2625" y="724"/>
      <point x="2627" y="575" type="curve" smooth="yes"/>
      <point x="2628" y="421"/>
      <point x="2541" y="349"/>
      <point x="2415" y="349" type="curve" smooth="yes"/>
      <point x="2220" y="349"/>
      <point x="2092" y="498"/>
      <point x="2035" y="901" type="curve"/>
      <point x="1911" y="863" type="line"/>
      <point x="1975" y="350"/>
      <point x="2196" y="207"/>
      <point x="2417" y="207" type="curve" smooth="yes"/>
      <point x="2642" y="207"/>
      <point x="2772" y="342"/>
      <point x="2772" y="569" type="curve" smooth="yes"/>
      <point x="2772" y="797"/>
      <point x="2631" y="919"/>
      <point x="2430" y="919" type="curve" smooth="yes"/>
    </contour>
    <contour>
      <point x="516" y="793" type="line"/>
      <point x="639" y="733"/>
      <point x="707" y="653"/>
      <point x="707" y="533" type="curve" smooth="yes"/>
      <point x="707" y="423"/>
      <point x="644" y="353"/>
      <point x="521" y="352" type="curve" smooth="yes"/>
      <point x="265" y="349"/>
      <point x="210" y="671"/>
      <point x="185" y="887" type="curve"/>
      <point x="58" y="870" type="line"/>
      <point x="83" y="485"/>
      <point x="207" y="205"/>
      <point x="528" y="205" type="curve" smooth="yes"/>
      <point x="732" y="205"/>
      <point x="861" y="324"/>
      <point x="861" y="505" type="curve" smooth="yes"/>
      <point x="861" y="656"/>
      <point x="788" y="741"/>
      <point x="648" y="814" type="curve"/>
      <point x="566" y="901" type="line"/>
    </contour>
    <contour>
      <point x="-15" y="1262" type="line"/>
      <point x="-15" y="1129" type="line"/>
      <point x="957" y="1129" type="line"/>
      <point x="957" y="1262" type="line"/>
    </contour>
    <contour>
      <point x="565" y="901" type="line"/>
      <point x="622" y="768" type="line"/>
      <point x="1111" y="768" type="line"/>
      <point x="1111" y="901" type="line"/>
    </contour>
    <contour>
      <point x="1449" y="793" type="line"/>
      <point x="1572" y="733"/>
      <point x="1641" y="653"/>
      <point x="1641" y="533" type="curve" smooth="yes"/>
      <point x="1641" y="423"/>
      <point x="1578" y="353"/>
      <point x="1455" y="352" type="curve" smooth="yes"/>
      <point x="1199" y="349"/>
      <point x="1141" y="671"/>
      <point x="1117" y="901" type="curve"/>
      <point x="990" y="885" type="line"/>
      <point x="1015" y="485"/>
      <point x="1141" y="205"/>
      <point x="1462" y="205" type="curve" smooth="yes"/>
      <point x="1666" y="205"/>
      <point x="1795" y="324"/>
      <point x="1795" y="505" type="curve" smooth="yes"/>
      <point x="1795" y="656"/>
      <point x="1721" y="741"/>
      <point x="1582" y="814" type="curve"/>
      <point x="1499" y="901" type="line"/>
    </contour>
    <contour>
      <point x="913" y="1262" type="line"/>
      <point x="913" y="1129" type="line"/>
      <point x="1880" y="1129" type="line"/>
      <point x="1880" y="1262" type="line"/>
    </contour>
    <contour>
      <point x="1499" y="901" type="line"/>
      <point x="1561" y="763" type="line"/>
      <point x="2036" y="763" type="line"/>
      <point x="2036" y="901" type="line"/>
    </contour>
    <contour>
      <point x="2956" y="660"/>
      <point x="2787" y="627"/>
      <point x="2676" y="641" type="curve"/>
      <point x="2711" y="514" type="line"/>
      <point x="2809" y="496"/>
      <point x="3014" y="533"/>
      <point x="3087" y="602" type="curve"/>
      <point x="3080" y="753" type="line"/>
    </contour>
    <contour>
      <point x="2966" y="1194" type="line"/>
      <point x="2966" y="0" type="line"/>
      <point x="3122" y="0" type="line"/>
      <point x="3122" y="1194" type="line"/>
    </contour>
    <contour>
      <point x="1847" y="1262" type="line"/>
      <point x="1847" y="1129" type="line"/>
      <point x="3342" y="1129" type="line"/>
      <point x="3342" y="1262" type="line"/>
    </contour>
    <contour>
      <point x="2073" y="58" type="move" name="nukta"/>
    </contour>
    <contour>
      <point x="3044" y="1168" type="move" name="top"/>
    </contour>
    <contour>
      <point x="2642" y="1168" type="move" name="topcandra"/>
    </contour>
    <contour>
      <point x="3044" y="28" type="move" name="bottom"/>
    </contour>
  </outline>
</glyph>
<glyph name="j_ja-deva.alt" format="1">
  <advance width="1495"/>
  <outline>
    <contour>
      <point x="64" y="965" type="line"/>
      <point x="93" y="586"/>
      <point x="220" y="340"/>
      <point x="513" y="340" type="curve" smooth="yes"/>
      <point x="732" y="340"/>
      <point x="843" y="466"/>
      <point x="843" y="616" type="curve" smooth="yes"/>
      <point x="843" y="740"/>
      <point x="783" y="830"/>
      <point x="638" y="911" type="curve"/>
      <point x="557" y="995" type="line"/>
      <point x="509" y="892" type="line"/>
      <point x="629" y="833"/>
      <point x="696" y="751"/>
      <point x="696" y="645" type="curve" smooth="yes"/>
      <point x="696" y="547"/>
      <point x="631" y="480"/>
      <point x="512" y="480" type="curve" smooth="yes"/>
      <point x="257" y="480"/>
      <point x="210" y="766"/>
      <point x="187" y="982" type="curve"/>
    </contour>
    <contour>
      <point x="557" y="995" type="line"/>
      <point x="617" y="863" type="line"/>
      <point x="1194" y="863" type="line"/>
      <point x="1195" y="995" type="line"/>
    </contour>
    <contour>
      <point x="1139" y="1194" type="line"/>
      <point x="1139" y="0" type="line"/>
      <point x="1295" y="0" type="line"/>
      <point x="1295" y="1194" type="line"/>
    </contour>
    <contour>
      <point x="-15" y="1262" type="line"/>
      <point x="-15" y="1129" type="line"/>
      <point x="1511" y="1129" type="line"/>
      <point x="1511" y="1262" type="line"/>
    </contour>
    <contour>
      <point x="600" y="99" type="line"/>
      <point x="789" y="102"/>
      <point x="905" y="3"/>
      <point x="905" y="-107" type="curve" smooth="yes"/>
      <point x="905" y="-219"/>
      <point x="812" y="-284"/>
      <point x="696" y="-284" type="curve" smooth="yes"/>
      <point x="498" y="-284"/>
      <point x="352" y="-109"/>
      <point x="271" y="60" type="curve"/>
      <point x="170" y="-10" type="line"/>
      <point x="286" y="-255"/>
      <point x="456" y="-426"/>
      <point x="701" y="-426" type="curve" smooth="yes"/>
      <point x="866" y="-426"/>
      <point x="1060" y="-336"/>
      <point x="1060" y="-113" type="curve" smooth="yes"/>
      <point x="1060" y="46"/>
      <point x="922" y="172"/>
      <point x="704" y="175" type="curve"/>
      <point x="595" y="213" type="line"/>
    </contour>
    <contour>
      <point x="595" y="213" type="line"/>
      <point x="708" y="124" type="line"/>
      <point x="1237" y="391" type="line"/>
      <point x="1168" y="502" type="line"/>
    </contour>
    <contour>
      <point x="1217" y="1168" type="move" name="top"/>
    </contour>
    <contour>
      <point x="1217" y="21" type="move" name="bottom"/>
    </contour>
    <contour>
      <point x="773" y="1168" type="move" name="topcandra"/>
    </contour>
  </outline>
</glyph>
<glyph name="j_tta-deva" format="1">
  <advance width="1950"/>
  <outline>
    <contour>
      <point x="1632" y="1167" type="line"/>
      <point x="1632" y="851" type="line"/>
      <point x="1656" y="893" type="line"/>
      <point x="1600" y="902"/>
      <point x="1494" y="903"/>
      <point x="1424" y="903" type="curve" smooth="yes"/>
      <point x="565" y="902" type="line"/>
      <point x="627" y="774" type="line"/>
      <point x="1181" y="775" type="line"/>
      <point x="1166" y="786" type="line"/>
      <point x="1060" y="719"/>
      <point x="1011" y="613"/>
      <point x="1011" y="476" type="curve" smooth="yes"/>
      <point x="1011" y="169"/>
      <point x="1231" y="27"/>
      <point x="1510" y="27" type="curve" smooth="yes"/>
      <point x="1656" y="27"/>
      <point x="1807" y="61"/>
      <point x="1906" y="121" type="curve"/>
      <point x="1861" y="253" type="line"/>
      <point x="1756" y="204"/>
      <point x="1634" y="168"/>
      <point x="1506" y="168" type="curve" smooth="yes"/>
      <point x="1281" y="168"/>
      <point x="1174" y="259"/>
      <point x="1174" y="476" type="curve" smooth="yes"/>
      <point x="1175" y="680"/>
      <point x="1282" y="759"/>
      <point x="1521" y="764" type="curve" smooth="yes"/>
      <point x="1604" y="765"/>
      <point x="1732" y="760"/>
      <point x="1788" y="758" type="curve"/>
      <point x="1788" y="1167" type="line"/>
    </contour>
    <contour>
      <point x="516" y="794" type="line"/>
      <point x="639" y="734"/>
      <point x="707" y="654"/>
      <point x="707" y="526" type="curve" smooth="yes"/>
      <point x="707" y="416"/>
      <point x="644" y="346"/>
      <point x="521" y="345" type="curve" smooth="yes"/>
      <point x="265" y="342"/>
      <point x="210" y="664"/>
      <point x="185" y="880" type="curve"/>
      <point x="58" y="863" type="line"/>
      <point x="83" y="478"/>
      <point x="207" y="198"/>
      <point x="528" y="198" type="curve" smooth="yes"/>
      <point x="732" y="198"/>
      <point x="861" y="317"/>
      <point x="861" y="498" type="curve" smooth="yes"/>
      <point x="861" y="657"/>
      <point x="788" y="742"/>
      <point x="648" y="808" type="curve"/>
      <point x="566" y="902" type="line"/>
    </contour>
    <contour>
      <point x="-15" y="1262" type="line"/>
      <point x="-15" y="1129" type="line"/>
      <point x="957" y="1129" type="line"/>
      <point x="957" y="1262" type="line"/>
    </contour>
    <contour>
      <point x="918" y="1262" type="line"/>
      <point x="918" y="1129" type="line"/>
      <point x="1964" y="1129" type="line"/>
      <point x="1964" y="1262" type="line"/>
    </contour>
    <contour>
      <point x="999" y="58" type="move" name="nukta"/>
    </contour>
    <contour>
      <point x="1712" y="1168" type="move" name="top"/>
    </contour>
    <contour>
      <point x="1488" y="1168" type="move" name="topcandra"/>
    </contour>
    <contour>
      <point x="1523" y="70" type="move" name="bottom"/>
    </contour>
  </outline>
</glyph>
<glyph name="jh-deva" format="1">
  <advance width="1047"/>
  <outline>
    <contour>
      <point x="1110" y="520"/>
      <point x="970" y="483"/>
      <point x="807" y="485" type="curve"/>
      <point x="865" y="376" type="line"/>
      <point x="990" y="360"/>
      <point x="1161" y="394"/>
      <point x="1280" y="473" type="curve"/>
      <point x="1256" y="614" type="line"/>
    </contour>
    <contour>
      <point x="890" y="1262" type="line"/>
      <point x="890" y="1129" type="line"/>
      <point x="1061" y="1129" type="line"/>
      <point x="1061" y="1262" type="line"/>
    </contour>
    <component base="i-deva"/>
  </outline>
</glyph>
<glyph name="k_t_ya-deva" format="1">
  <advance width="2903"/>
  <outline>
    <contour>
      <point x="1346" y="839"/>
      <point x="1231" y="744"/>
      <point x="1231" y="569" type="curve" smooth="yes"/>
      <point x="1231" y="366"/>
      <point x="1368" y="130"/>
      <point x="1494" y="-33" type="curve"/>
      <point x="1618" y="51" type="line"/>
      <point x="1465" y="269"/>
      <point x="1391" y="422"/>
      <point x="1391" y="546" type="curve" smooth="yes"/>
      <point x="1391" y="654"/>
      <point x="1441" y="693"/>
      <point x="1602" y="693" type="curve" smooth="yes"/>
      <point x="1764" y="693"/>
      <point x="1825" y="650"/>
      <point x="1955" y="550" type="curve"/>
      <point x="1946" y="726" type="line"/>
      <point x="1853" y="801"/>
      <point x="1750" y="839"/>
      <point x="1574" y="839" type="curve" smooth="yes"/>
    </contour>
    <contour>
      <point x="1142" y="1262" type="line"/>
      <point x="1142" y="1129" type="line"/>
      <point x="1797" y="1129" type="line"/>
      <point x="1797" y="1262" type="line"/>
    </contour>
    <component base="k-deva"/>
    <component base="ya-deva" xOffset="1755"/>
  </outline>
</glyph>
<glyph name="kh_sha-deva" format="1">
  <advance width="2455"/>
  <outline>
    <contour>
      <point x="368" y="1182" type="line"/>
      <point x="368" y="820" type="line" smooth="yes"/>
      <point x="368" y="722"/>
      <point x="343" y="675"/>
      <point x="269" y="674" type="curve" smooth="yes"/>
      <point x="237" y="673"/>
      <point x="202" y="682"/>
      <point x="160" y="716" type="curve"/>
      <point x="60" y="647" type="line"/>
      <point x="252" y="119"/>
      <point x="497" y="-57"/>
      <point x="810" y="-57" type="curve" smooth="yes"/>
      <point x="881" y="-57"/>
      <point x="979" y="-50"/>
      <point x="1059" y="-13" type="curve"/>
      <point x="1027" y="116" type="line"/>
      <point x="969" y="96"/>
      <point x="894" y="80"/>
      <point x="804" y="80" type="curve" smooth="yes"/>
      <point x="563" y="80"/>
      <point x="361" y="236"/>
      <point x="231" y="600" type="curve"/>
      <point x="210" y="569" type="line"/>
      <point x="241" y="558"/>
      <point x="278" y="546"/>
      <point x="320" y="546" type="curve" smooth="yes"/>
      <point x="421" y="546"/>
      <point x="525" y="606"/>
      <point x="525" y="820" type="curve" smooth="yes"/>
      <point x="525" y="1182" type="line"/>
    </contour>
    <contour>
      <point x="788" y="954"/>
      <point x="623" y="874"/>
      <point x="622" y="612" type="curve" smooth="yes"/>
      <point x="621" y="437"/>
      <point x="702" y="275"/>
      <point x="946" y="275" type="curve" smooth="yes"/>
      <point x="1101" y="275"/>
      <point x="1240" y="354"/>
      <point x="1300" y="481" type="curve"/>
      <point x="1243" y="594" type="line"/>
      <point x="1194" y="483"/>
      <point x="1087" y="409"/>
      <point x="968" y="409" type="curve" smooth="yes"/>
      <point x="830" y="409"/>
      <point x="780" y="476"/>
      <point x="781" y="614" type="curve" smooth="yes"/>
      <point x="782" y="780"/>
      <point x="873" y="822"/>
      <point x="1017" y="822" type="curve" smooth="yes"/>
      <point x="1071" y="822"/>
      <point x="1120" y="818"/>
      <point x="1181" y="804" type="curve"/>
      <point x="1194" y="924" type="line"/>
      <point x="1135" y="946"/>
      <point x="1075" y="954"/>
      <point x="1011" y="954" type="curve" smooth="yes"/>
    </contour>
    <contour>
      <point x="-15" y="1262" type="line"/>
      <point x="-15" y="1129" type="line"/>
      <point x="1150" y="1129" type="line"/>
      <point x="1150" y="1262" type="line"/>
    </contour>
    <contour>
      <point x="1342" y="511" type="line"/>
      <point x="1761" y="-33" type="line"/>
      <point x="1881" y="68" type="line"/>
      <point x="1448" y="555" type="line"/>
    </contour>
    <contour>
      <point x="1252" y="677" type="line"/>
      <point x="1217" y="614"/>
      <point x="1207" y="560"/>
      <point x="1206" y="525" type="curve" smooth="yes"/>
      <point x="1205" y="444"/>
      <point x="1266" y="408"/>
      <point x="1322" y="408" type="curve" smooth="yes"/>
      <point x="1373" y="408"/>
      <point x="1421" y="422"/>
      <point x="1512" y="468" type="curve"/>
      <point x="1499" y="501" type="line"/>
      <point x="1350" y="677" type="line"/>
    </contour>
    <contour>
      <point x="1327" y="1282"/>
      <point x="1222" y="1171"/>
      <point x="1225" y="1042" type="curve" smooth="yes"/>
      <point x="1227" y="949"/>
      <point x="1278" y="863"/>
      <point x="1387" y="808" type="curve"/>
      <point x="1454" y="900" type="line"/>
      <point x="1397" y="941"/>
      <point x="1371" y="981"/>
      <point x="1371" y="1032" type="curve" smooth="yes"/>
      <point x="1371" y="1108"/>
      <point x="1431" y="1152"/>
      <point x="1536" y="1152" type="curve" smooth="yes"/>
      <point x="1675" y="1152"/>
      <point x="1724" y="1061"/>
      <point x="1724" y="954" type="curve" smooth="yes"/>
      <point x="1724" y="754"/>
      <point x="1584" y="630"/>
      <point x="1320" y="525" type="curve"/>
      <point x="1427" y="433" type="line"/>
      <point x="1696" y="536"/>
      <point x="1878" y="700"/>
      <point x="1878" y="958" type="curve" smooth="yes"/>
      <point x="1878" y="1126"/>
      <point x="1777" y="1282"/>
      <point x="1532" y="1282" type="curve" smooth="yes"/>
    </contour>
    <contour>
      <point x="2098" y="1194" type="line"/>
      <point x="2098" y="0" type="line"/>
      <point x="2255" y="0" type="line"/>
      <point x="2255" y="1194" type="line"/>
    </contour>
    <contour>
      <point x="1932" y="1262" type="line"/>
      <point x="1932" y="1129" type="line"/>
      <point x="2469" y="1129" type="line"/>
      <point x="2469" y="1262" type="line"/>
    </contour>
    <contour>
      <point x="1402" y="58" type="move" name="nukta"/>
    </contour>
    <contour>
      <point x="2177" y="1168" type="move" name="top"/>
    </contour>
    <contour>
      <point x="1902" y="1168" type="move" name="topcandra"/>
    </contour>
    <contour>
      <point x="2177" y="28" type="move" name="bottom"/>
    </contour>
  </outline>
</glyph>
<glyph name="la-deva.loclMAR" format="1">
  <advance width="1305"/>
  <outline>
    <contour>
      <point x="728" y="927"/>
      <point x="591" y="791"/>
      <point x="591" y="578" type="curve" smooth="yes"/>
      <point x="591" y="542"/>
      <point x="595" y="505"/>
      <point x="606" y="468" type="curve"/>
      <point x="746" y="485" type="line"/>
      <point x="742" y="511"/>
      <point x="740" y="536"/>
      <point x="740" y="560" type="curve" smooth="yes"/>
      <point x="740" y="697"/>
      <point x="810" y="782"/>
      <point x="919" y="782" type="curve"/>
      <point x="1034" y="782"/>
      <point x="1089" y="697"/>
      <point x="1089" y="561" type="curve" smooth="yes"/>
      <point x="1089" y="432"/>
      <point x="1038" y="280"/>
      <point x="910" y="102" type="curve"/>
      <point x="1025" y="18" type="line"/>
      <point x="1181" y="209"/>
      <point x="1237" y="420"/>
      <point x="1237" y="553" type="curve" smooth="yes"/>
      <point x="1237" y="790"/>
      <point x="1124" y="927"/>
      <point x="912" y="927" type="curve"/>
    </contour>
    <contour>
      <point x="178" y="927"/>
      <point x="67" y="811"/>
      <point x="67" y="604" type="curve" smooth="yes"/>
      <point x="67" y="346"/>
      <point x="223" y="131"/>
      <point x="316" y="24" type="curve"/>
      <point x="421" y="113" type="line"/>
      <point x="312" y="248"/>
      <point x="222" y="412"/>
      <point x="222" y="583" type="curve" smooth="yes"/>
      <point x="222" y="732"/>
      <point x="302" y="782"/>
      <point x="397" y="782" type="curve" smooth="yes"/>
      <point x="512" y="782"/>
      <point x="584" y="699"/>
      <point x="649" y="572" type="curve"/>
      <point x="680" y="682" type="line"/>
      <point x="606" y="858"/>
      <point x="504" y="927"/>
      <point x="364" y="927" type="curve" smooth="yes"/>
    </contour>
    <contour>
      <point x="-15" y="1262" type="line"/>
      <point x="-15" y="1129" type="line"/>
      <point x="1320" y="1129" type="line"/>
      <point x="1320" y="1262" type="line"/>
    </contour>
    <contour>
      <point x="900" y="1181" type="line"/>
      <point x="900" y="854" type="line"/>
      <point x="1057" y="854" type="line"/>
      <point x="1057" y="1181" type="line"/>
    </contour>
    <contour>
      <point x="65" y="32" type="move" name="nukta"/>
    </contour>
    <contour>
      <point x="979" y="1168" type="move" name="top"/>
    </contour>
    <contour>
      <point x="670" y="1168" type="move" name="topcandra"/>
    </contour>
    <contour>
      <point x="988" y="82" type="move" name="bottom"/>
    </contour>
  </outline>
</glyph>
<glyph name="la_ra-deva" format="1">
  <advance width="1408"/>
  <outline>
    <contour>
      <point x="1196" y="444" type="line"/>
      <point x="1154" y="571" type="line"/>
      <point x="623" y="187" type="line"/>
      <point x="718" y="73" type="line"/>
    </contour>
    <component base="la-deva"/>
    <contour>
      <point x="1132" y="1168" type="move" name="top"/>
    </contour>
    <contour>
      <point x="1134" y="28" type="move" name="bottom"/>
    </contour>
    <contour>
      <point x="669" y="1167" type="move" name="topcandra"/>
    </contour>
  </outline>
</glyph>
<glyph name="nine.pnum" format="1">
  <advance width="1073"/>
  <outline>
    <contour>
      <point x="502" y="629" type="curve" name="hr00" smooth="yes"/>
      <point x="339" y="629"/>
      <point x="260" y="761"/>
      <point x="260" y="932" type="curve" smooth="yes"/>
      <point x="260" y="1104"/>
      <point x="366" y="1237"/>
      <point x="499" y="1237" type="curve" smooth="yes"/>
      <point x="676" y="1237"/>
      <point x="779" y="1093"/>
      <point x="779" y="794" type="curve"/>
      <point x="690" y="669"/>
      <point x="587" y="629"/>
    </contour>
    <contour>
      <point x="175" y="105" type="line"/>
      <point x="266" y="17"/>
      <point x="361" y="-25"/>
      <point x="500" y="-25" type="curve" smooth="yes"/>
      <point x="760" y="-25"/>
      <point x="939" y="193"/>
      <point x="939" y="698" type="curve" smooth="yes"/>
      <point x="939" y="1186"/>
      <point x="764" y="1368"/>
      <point x="496" y="1368" type="curve" smooth="yes"/>
      <point x="288" y="1368"/>
      <point x="104" y="1182"/>
      <point x="104" y="932" type="curve" smooth="yes"/>
      <point x="104" y="664"/>
      <point x="249" y="503"/>
      <point x="475" y="503" type="curve" smooth="yes"/>
      <point x="583" y="503"/>
      <point x="710" y="557"/>
      <point x="782" y="662" type="curve"/>
      <point x="777" y="262"/>
      <point x="679" y="113"/>
      <point x="494" y="113" type="curve" smooth="yes"/>
      <point x="412" y="113"/>
      <point x="301" y="156"/>
      <point x="259" y="210" type="curve"/>
    </contour>
  </outline>
</glyph>
<glyph name="one.pnum" format="1">
  <advance width="754"/>
  <outline>
    <contour>
      <point x="342" y="0" type="line" name="hr00"/>
      <point x="508" y="0" type="line"/>
      <point x="508" y="1348" type="line"/>
      <point x="381" y="1348" type="line"/>
      <point x="309" y="1305"/>
      <point x="223" y="1272"/>
      <point x="102" y="1251" type="curve"/>
      <point x="102" y="1136" type="line"/>
      <point x="342" y="1153" type="line"/>
    </contour>
  </outline>
</glyph>
<glyph name="pa_ta-deva" format="1">
  <advance width="1140"/>
  <outline>
    <contour>
      <point x="172" y="1169" type="line"/>
      <point x="172" y="924" type="line" smooth="yes"/>
      <point x="172" y="758"/>
      <point x="212" y="647"/>
      <point x="336" y="598" type="curve"/>
      <point x="336" y="632" type="line"/>
      <point x="190" y="615"/>
      <point x="161" y="503"/>
      <point x="161" y="422" type="curve" smooth="yes"/>
      <point x="161" y="243"/>
      <point x="294" y="53"/>
      <point x="359" y="-42" type="curve"/>
      <point x="479" y="42" type="line"/>
      <point x="402" y="148"/>
      <point x="316" y="290"/>
      <point x="316" y="405" type="curve" smooth="yes"/>
      <point x="316" y="517"/>
      <point x="390" y="539"/>
      <point x="505" y="537" type="curve" smooth="yes"/>
      <point x="893" y="536" type="line"/>
      <point x="893" y="682" type="line"/>
      <point x="493" y="682" type="line" smooth="yes"/>
      <point x="371" y="681"/>
      <point x="327" y="774"/>
      <point x="327" y="922" type="curve" smooth="yes"/>
      <point x="327" y="1169" type="line"/>
    </contour>
    <contour>
      <point x="783" y="1194" type="line"/>
      <point x="783" y="0" type="line"/>
      <point x="940" y="0" type="line"/>
      <point x="940" y="1194" type="line"/>
    </contour>
    <contour>
      <point x="-15" y="1262" type="line"/>
      <point x="-15" y="1129" type="line"/>
      <point x="1155" y="1129" type="line"/>
      <point x="1155" y="1262" type="line"/>
    </contour>
    <contour>
      <point x="862" y="1168" type="move" name="top"/>
    </contour>
    <contour>
      <point x="862" y="28" type="move" name="bottom"/>
    </contour>
    <contour>
      <point x="585" y="1168" type="move" name="topcandra"/>
    </contour>
  </outline>
</glyph>
<glyph name="ph_la-deva" format="1">
  <advance width="1572"/>
  <outline>
    <contour>
      <point x="160" y="1177" type="line"/>
      <point x="160" y="751" type="line" smooth="yes"/>
      <point x="160" y="503"/>
      <point x="276" y="375"/>
      <point x="494" y="375" type="curve" smooth="yes"/>
      <point x="618" y="375"/>
      <point x="768" y="441"/>
      <point x="854" y="577" type="curve"/>
      <point x="827" y="715" type="line"/>
      <point x="738" y="583"/>
      <point x="619" y="517"/>
      <point x="503" y="516" type="curve" smooth="yes"/>
      <point x="364" y="515"/>
      <point x="318" y="592"/>
      <point x="318" y="737" type="curve" smooth="yes"/>
      <point x="318" y="1177" type="line"/>
    </contour>
    <contour>
      <point x="786" y="1188" type="line"/>
      <point x="786" y="0" type="line"/>
      <point x="844" y="-38" type="line"/>
      <point x="944" y="20" type="line"/>
      <point x="944" y="1188" type="line"/>
    </contour>
    <contour>
      <point x="1101" y="915"/>
      <point x="994" y="859"/>
      <point x="893" y="736" type="curve"/>
      <point x="893" y="515" type="line"/>
      <point x="1029" y="703"/>
      <point x="1134" y="776"/>
      <point x="1221" y="776" type="curve" smooth="yes"/>
      <point x="1311" y="776"/>
      <point x="1360" y="715"/>
      <point x="1360" y="614" type="curve" smooth="yes"/>
      <point x="1360" y="526"/>
      <point x="1316" y="422"/>
      <point x="1238" y="326" type="curve"/>
      <point x="1356" y="240" type="line"/>
      <point x="1455" y="344"/>
      <point x="1504" y="487"/>
      <point x="1504" y="606" type="curve" smooth="yes"/>
      <point x="1504" y="785"/>
      <point x="1400" y="915"/>
      <point x="1230" y="915" type="curve" smooth="yes"/>
    </contour>
    <contour>
      <point x="-15" y="1262" type="line"/>
      <point x="-15" y="1129" type="line"/>
      <point x="1587" y="1129" type="line"/>
      <point x="1587" y="1262" type="line"/>
    </contour>
    <contour>
      <point x="871" y="173"/>
      <point x="749" y="43"/>
      <point x="749" y="-156" type="curve" smooth="yes"/>
      <point x="749" y="-191"/>
      <point x="753" y="-226"/>
      <point x="763" y="-260" type="curve"/>
      <point x="897" y="-244" type="line"/>
      <point x="894" y="-220"/>
      <point x="892" y="-196"/>
      <point x="892" y="-173" type="curve" smooth="yes"/>
      <point x="892" y="-46"/>
      <point x="952" y="34"/>
      <point x="1064" y="34" type="curve" smooth="yes"/>
      <point x="1169" y="34"/>
      <point x="1229" y="-31"/>
      <point x="1229" y="-143" type="curve" smooth="yes"/>
      <point x="1229" y="-239"/>
      <point x="1197" y="-347"/>
      <point x="1024" y="-475" type="curve"/>
      <point x="1102" y="-580" type="line"/>
      <point x="1317" y="-440"/>
      <point x="1372" y="-273"/>
      <point x="1372" y="-146" type="curve" smooth="yes"/>
      <point x="1372" y="54"/>
      <point x="1254" y="173"/>
      <point x="1061" y="173" type="curve" smooth="yes"/>
    </contour>
    <contour>
      <point x="362" y="173"/>
      <point x="249" y="62"/>
      <point x="249" y="-120" type="curve" smooth="yes"/>
      <point x="249" y="-322"/>
      <point x="361" y="-465"/>
      <point x="544" y="-575" type="curve"/>
      <point x="612" y="-471" type="line"/>
      <point x="453" y="-369"/>
      <point x="399" y="-266"/>
      <point x="399" y="-140" type="curve" smooth="yes"/>
      <point x="399" y="-14"/>
      <point x="477" y="33"/>
      <point x="563" y="33" type="curve" smooth="yes"/>
      <point x="673" y="33"/>
      <point x="747" y="-47"/>
      <point x="806" y="-164" type="curve"/>
      <point x="835" y="-59" type="line"/>
      <point x="767" y="106"/>
      <point x="667" y="173"/>
      <point x="534" y="173" type="curve" smooth="yes"/>
    </contour>
    <contour>
      <point x="865" y="1168" type="move" name="top"/>
    </contour>
    <contour>
      <point x="1065" y="-486" type="move" name="bottom"/>
    </contour>
    <contour>
      <point x="867" y="1168" type="move" name="topcandra"/>
    </contour>
  </outline>
</glyph>
<glyph name="reph-deva" format="1">
  <advance width="540"/>
  <outline>
    <contour>
      <point x="225" y="1708"/>
      <point x="108" y="1617"/>
      <point x="108" y="1480" type="curve" smooth="yes"/>
      <point x="108" y="1403"/>
      <point x="133" y="1310"/>
      <point x="226" y="1215" type="curve"/>
      <point x="308" y="1245" type="line"/>
      <point x="266" y="1294"/>
      <point x="232" y="1362"/>
      <point x="232" y="1441" type="curve" smooth="yes"/>
      <point x="232" y="1535"/>
      <point x="296" y="1573"/>
      <point x="410" y="1573" type="curve" smooth="yes"/>
      <point x="488" y="1573"/>
      <point x="547" y="1550"/>
      <point x="600" y="1521" type="curve"/>
      <point x="638" y="1641" type="line"/>
      <point x="581" y="1679"/>
      <point x="496" y="1708"/>
      <point x="389" y="1708" type="curve" smooth="yes"/>
    </contour>
    <contour>
      <point x="376" y="1573" type="move" name="topcandra"/>
    </contour>
    <contour>
      <point x="256" y="1168" type="move" name="_top"/>
    </contour>
  </outline>
</glyph>
<glyph name="reph_anusvara-deva" format="1">
  <advance width="570"/>
  <outline>
    <contour>
      <point x="345" y="1503"/>
      <point x="319" y="1479"/>
      <point x="319" y="1421" type="curve" smooth="yes"/>
      <point x="319" y="1363"/>
      <point x="345" y="1339"/>
      <point x="403" y="1339" type="curve" smooth="yes"/>
      <point x="461" y="1339"/>
      <point x="486" y="1363"/>
      <point x="486" y="1421" type="curve" smooth="yes"/>
      <point x="486" y="1479"/>
      <point x="461" y="1503"/>
      <point x="403" y="1503" type="curve" smooth="yes"/>
    </contour>
    <component base="reph-deva" xOffset="2"/>
    <contour>
      <point x="376" y="1573" type="move" name="topcandra"/>
    </contour>
    <contour>
      <point x="259" y="1168" type="move" name="_top"/>
    </contour>
  </outline>
</glyph>
<glyph name="sa_ra-deva" format="1">
  <advance width="1305"/>
  <outline>
    <contour>
      <point x="1077" y="457" type="line"/>
      <point x="1036" y="556" type="line"/>
      <point x="596" y="284" type="line"/>
      <point x="686" y="171" type="line"/>
    </contour>
    <component base="sa-deva"/>
    <contour>
      <point x="1042" y="1168" type="move" name="top"/>
    </contour>
    <contour>
      <point x="1042" y="28" type="move" name="bottom"/>
    </contour>
    <contour>
      <point x="744" y="1167" type="move" name="topcandra"/>
    </contour>
  </outline>
</glyph>
<glyph name="seven.numr" format="1">
  <advance width="718"/>
  <outline>
    <contour>
      <point x="268" y="545" type="curve" name="hr00"/>
      <point x="405" y="545" type="line"/>
      <point x="421" y="825"/>
      <point x="466" y="1023"/>
      <point x="661" y="1273" type="curve"/>
      <point x="661" y="1343" type="line"/>
      <point x="102" y="1343" type="line"/>
      <point x="102" y="1234" type="line"/>
      <point x="515" y="1234" type="line"/>
      <point x="351" y="1011"/>
      <point x="286" y="822"/>
    </contour>
  </outline>
</glyph>
<glyph name="sha-deva.loclMAR" format="1">
  <advance width="1347"/>
  <outline>
    <contour>
      <point x="990" y="1199" type="line"/>
      <point x="990" y="0" type="line"/>
      <point x="1147" y="0" type="line"/>
      <point x="1147" y="1199" type="line"/>
    </contour>
    <contour>
      <point x="775" y="1262" type="line"/>
      <point x="775" y="1129" type="line"/>
      <point x="1362" y="1129" type="line"/>
      <point x="1362" y="1262" type="line"/>
    </contour>
    <component base="sh-deva.loclMAR"/>
    <contour>
      <point x="264" y="-285" type="move" name="nukta"/>
    </contour>
    <contour>
      <point x="1069" y="1168" type="move" name="top"/>
    </contour>
    <contour>
      <point x="721" y="1168" type="move" name="topcandra"/>
    </contour>
    <contour>
      <point x="1069" y="28" type="move" name="bottom"/>
    </contour>
  </outline>
</glyph>
<glyph name="slash.frac" format="1">
  <advance width="175"/>
  <outline>
    <contour>
      <point x="-228" y="-25" type="line" name="hr00"/>
      <point x="513" y="1368" type="line"/>
      <point x="399" y="1368" type="line"/>
      <point x="-342" y="-25" type="line"/>
    </contour>
  </outline>
</glyph>
<glyph name="ss_tt_va-deva" format="1">
  <advance width="1042"/>
  <outline>
    <contour>
      <point x="679" y="-107"/>
      <point x="815" y="-55"/>
      <point x="919" y="29" type="curve"/>
      <point x="855" y="144" type="line"/>
      <point x="780" y="87"/>
      <point x="674" y="26"/>
      <point x="513" y="26" type="curve" smooth="yes"/>
      <point x="311" y="26"/>
      <point x="231" y="114"/>
      <point x="231" y="216" type="curve" smooth="yes"/>
      <point x="231" y="363"/>
      <point x="392" y="394"/>
      <point x="494" y="412" type="curve" smooth="yes"/>
      <point x="736" y="456"/>
      <point x="862" y="525"/>
      <point x="862" y="854" type="curve" smooth="yes"/>
      <point x="862" y="1168" type="line"/>
      <point x="717" y="1168" type="line"/>
      <point x="717" y="829" type="line" smooth="yes"/>
      <point x="717" y="651"/>
      <point x="640" y="555"/>
      <point x="485" y="555" type="curve" smooth="yes"/>
      <point x="336" y="555"/>
      <point x="275" y="642"/>
      <point x="275" y="793" type="curve" smooth="yes"/>
      <point x="275" y="1170" type="line"/>
      <point x="130" y="1170" type="line"/>
      <point x="130" y="796" type="line" smooth="yes"/>
      <point x="130" y="632"/>
      <point x="182" y="523"/>
      <point x="274" y="474" type="curve"/>
      <point x="296" y="503" type="line"/>
      <point x="148" y="445"/>
      <point x="80" y="350"/>
      <point x="80" y="225" type="curve" smooth="yes"/>
      <point x="80" y="24"/>
      <point x="249" y="-107"/>
      <point x="513" y="-107" type="curve" smooth="yes"/>
    </contour>
    <contour>
      <point x="535" y="-590"/>
      <point x="673" y="-541"/>
      <point x="749" y="-423" type="curve"/>
      <point x="710" y="-320" type="line"/>
      <point x="645" y="-409"/>
      <point x="546" y="-464"/>
      <point x="434" y="-464" type="curve" smooth="yes"/>
      <point x="323" y="-464"/>
      <point x="261" y="-409"/>
      <point x="261" y="-285" type="curve" smooth="yes"/>
      <point x="261" y="-142"/>
      <point x="345" y="-107"/>
      <point x="459" y="-103" type="curve"/>
      <point x="435" y="29" type="line"/>
      <point x="236" y="29"/>
      <point x="111" y="-81"/>
      <point x="111" y="-279" type="curve" smooth="yes"/>
      <point x="111" y="-466"/>
      <point x="228" y="-590"/>
      <point x="419" y="-590" type="curve" smooth="yes"/>
    </contour>
    <contour>
      <point x="828" y="-730" type="line"/>
      <point x="828" y="36" type="line"/>
      <point x="679" y="36" type="line"/>
      <point x="679" y="-730" type="line"/>
    </contour>
    <contour>
      <point x="808" y="624" type="line"/>
      <point x="258" y="1174" type="line"/>
      <point x="179" y="1096" type="line"/>
      <point x="729" y="546" type="line"/>
    </contour>
    <contour>
      <point x="1008" y="1129" type="line"/>
      <point x="1008" y="1262" type="line"/>
      <point x="-15" y="1262" type="line"/>
      <point x="-15" y="1129" type="line"/>
    </contour>
  </outline>
</glyph>
<glyph name="ssa_ra-deva" format="1">
  <advance width="1165"/>
  <outline>
    <contour>
      <point x="865" y="445" type="line"/>
      <point x="786" y="527" type="line"/>
      <point x="162" y="80" type="line"/>
      <point x="254" y="-36" type="line"/>
    </contour>
    <component base="ssa-deva"/>
    <contour>
      <point x="891" y="1168" type="move" name="top"/>
    </contour>
    <contour>
      <point x="891" y="28" type="move" name="bottom"/>
    </contour>
    <contour>
      <point x="589" y="1168" type="move" name="topcandra"/>
    </contour>
  </outline>
</glyph>
<glyph name="t_n_ya-deva" format="1">
  <advance width="2287"/>
  <outline>
    <contour>
      <point x="-15" y="1262" type="line"/>
      <point x="-15" y="1129" type="line"/>
      <point x="630" y="1129" type="line"/>
      <point x="630" y="1262" type="line"/>
    </contour>
    <contour>
      <point x="664" y="801"/>
      <point x="571" y="839"/>
      <point x="416" y="839" type="curve" smooth="yes"/>
      <point x="188" y="839"/>
      <point x="73" y="744"/>
      <point x="73" y="569" type="curve" smooth="yes"/>
      <point x="73" y="366"/>
      <point x="210" y="130"/>
      <point x="336" y="-33" type="curve"/>
      <point x="460" y="51" type="line"/>
      <point x="307" y="269"/>
      <point x="233" y="422"/>
      <point x="233" y="546" type="curve" smooth="yes"/>
      <point x="233" y="647"/>
      <point x="281" y="693"/>
      <point x="424" y="693" type="curve" smooth="yes"/>
      <point x="570" y="693"/>
      <point x="635" y="653"/>
      <point x="771" y="537" type="curve"/>
      <point x="778" y="697" type="line"/>
    </contour>
    <contour>
      <point x="680" y="729" type="line"/>
      <point x="680" y="598" type="line"/>
      <point x="823" y="390" type="line"/>
      <point x="937" y="390"/>
      <point x="957" y="458"/>
      <point x="957" y="543" type="curve" smooth="yes"/>
      <point x="957" y="729" type="line"/>
    </contour>
    <contour>
      <point x="812" y="729" type="line"/>
      <point x="812" y="591" type="line"/>
      <point x="1317" y="591" type="line"/>
      <point x="1317" y="730" type="line"/>
    </contour>
    <contour>
      <point x="572" y="1262" type="line"/>
      <point x="572" y="1129" type="line"/>
      <point x="1169" y="1129" type="line"/>
      <point x="1169" y="1262" type="line"/>
    </contour>
    <component base="ya-deva" xOffset="1139"/>
  </outline>
</glyph>
<glyph name="t_s_ya-deva" format="1">
  <advance width="2517"/>
  <outline>
    <contour>
      <point x="1553" y="1146" type="line"/>
      <point x="1628" y="1065"/>
      <point x="1673" y="966"/>
      <point x="1673" y="903" type="curve" smooth="yes"/>
      <point x="1673" y="806"/>
      <point x="1597" y="736"/>
      <point x="1416" y="670" type="curve"/>
      <point x="1468" y="397"/>
      <point x="1633" y="258"/>
      <point x="1857" y="258" type="curve" smooth="yes"/>
      <point x="1979" y="258"/>
      <point x="2120" y="311"/>
      <point x="2203" y="425" type="curve"/>
      <point x="2208" y="624" type="line"/>
      <point x="2118" y="467"/>
      <point x="1989" y="400"/>
      <point x="1850" y="400" type="curve" smooth="yes"/>
      <point x="1704" y="400"/>
      <point x="1614" y="469"/>
      <point x="1554" y="651" type="curve"/>
      <point x="1527" y="577" type="line"/>
      <point x="1725" y="647"/>
      <point x="1825" y="753"/>
      <point x="1825" y="887" type="curve" smooth="yes"/>
      <point x="1825" y="966"/>
      <point x="1788" y="1050"/>
      <point x="1709" y="1149" type="curve"/>
    </contour>
    <contour>
      <point x="188" y="839"/>
      <point x="73" y="744"/>
      <point x="73" y="569" type="curve" smooth="yes"/>
      <point x="73" y="366"/>
      <point x="210" y="130"/>
      <point x="336" y="-33" type="curve"/>
      <point x="460" y="51" type="line"/>
      <point x="307" y="269"/>
      <point x="233" y="422"/>
      <point x="233" y="546" type="curve" smooth="yes"/>
      <point x="233" y="647"/>
      <point x="281" y="693"/>
      <point x="434" y="693" type="curve" smooth="yes"/>
      <point x="561" y="693"/>
      <point x="627" y="660"/>
      <point x="777" y="531" type="curve"/>
      <point x="768" y="704" type="line"/>
      <point x="656" y="801"/>
      <point x="573" y="839"/>
      <point x="426" y="839" type="curve" smooth="yes"/>
    </contour>
    <contour>
      <point x="-15" y="1262" type="line"/>
      <point x="-15" y="1129" type="line"/>
      <point x="662" y="1129" type="line"/>
      <point x="662" y="1262" type="line"/>
    </contour>
    <contour>
      <point x="2160" y="1210" type="line"/>
      <point x="2160" y="0" type="line"/>
      <point x="2316" y="0" type="line"/>
      <point x="2316" y="1210" type="line"/>
    </contour>
    <contour>
      <point x="1353" y="1262" type="line"/>
      <point x="1353" y="1129" type="line"/>
      <point x="2531" y="1129" type="line"/>
      <point x="2531" y="1262" type="line"/>
    </contour>
    <contour>
      <point x="976" y="1185" type="line"/>
      <point x="976" y="797" type="line" smooth="yes"/>
      <point x="976" y="707"/>
      <point x="951" y="661"/>
      <point x="876" y="661" type="curve" smooth="yes"/>
      <point x="833" y="661"/>
      <point x="798" y="681"/>
      <point x="761" y="710" type="curve"/>
      <point x="662" y="629" type="line"/>
      <point x="1102" y="-28" type="line"/>
      <point x="1226" y="64" type="line"/>
      <point x="835" y="599" type="line"/>
      <point x="820" y="583" type="line"/>
      <point x="840" y="562"/>
      <point x="876" y="541"/>
      <point x="924" y="541" type="curve" smooth="yes"/>
      <point x="1049" y="541"/>
      <point x="1132" y="620"/>
      <point x="1132" y="799" type="curve" smooth="yes"/>
      <point x="1132" y="1186" type="line"/>
    </contour>
    <contour>
      <point x="1013" y="612" type="line"/>
      <point x="1121" y="559"/>
      <point x="1267" y="536"/>
      <point x="1401" y="536" type="curve" smooth="yes"/>
      <point x="1460" y="536"/>
      <point x="1517" y="540"/>
      <point x="1558" y="548" type="curve"/>
      <point x="1558" y="693" type="line"/>
      <point x="1513" y="684"/>
      <point x="1449" y="675"/>
      <point x="1374" y="675" type="curve" smooth="yes"/>
      <point x="1276" y="675"/>
      <point x="1163" y="691"/>
      <point x="1060" y="730" type="curve"/>
    </contour>
    <contour>
      <point x="588" y="1262" type="line"/>
      <point x="588" y="1129" type="line"/>
      <point x="1398" y="1129" type="line"/>
      <point x="1398" y="1262" type="line"/>
    </contour>
    <contour>
      <point x="1635" y="72" type="move" name="nukta"/>
    </contour>
    <contour>
      <point x="2239" y="1168" type="move" name="top"/>
    </contour>
    <contour>
      <point x="1955" y="1168" type="move" name="topcandra"/>
    </contour>
    <contour>
      <point x="2239" y="28" type="move" name="bottom"/>
    </contour>
  </outline>
</glyph>
<glyph name="th-deva" format="1">
  <advance width="693"/>
  <outline>
    <contour>
      <point x="242" y="591" type="line"/>
      <point x="400" y="643"/>
      <point x="618" y="771"/>
      <point x="618" y="994" type="curve" smooth="yes"/>
      <point x="618" y="1126"/>
      <point x="532" y="1281"/>
      <point x="329" y="1281" type="curve" smooth="yes"/>
      <point x="159" y="1281"/>
      <point x="76" y="1182"/>
      <point x="79" y="1073" type="curve" smooth="yes"/>
      <point x="81" y="995"/>
      <point x="130" y="922"/>
      <point x="225" y="870" type="curve"/>
      <point x="288" y="943" type="line"/>
      <point x="237" y="986"/>
      <point x="215" y="1017"/>
      <point x="215" y="1059" type="curve" smooth="yes"/>
      <point x="215" y="1112"/>
      <point x="252" y="1153"/>
      <point x="331" y="1153" type="curve" smooth="yes"/>
      <point x="412" y="1153"/>
      <point x="466" y="1098"/>
      <point x="466" y="1006" type="curve" smooth="yes"/>
      <point x="466" y="840"/>
      <point x="286" y="743"/>
      <point x="116" y="685" type="curve"/>
      <point x="168" y="403"/>
      <point x="331" y="258"/>
      <point x="552" y="258" type="curve" smooth="yes"/>
      <point x="691" y="258"/>
      <point x="825" y="328"/>
      <point x="927" y="429" type="curve"/>
      <point x="903" y="582" type="line"/>
      <point x="808" y="471"/>
      <point x="687" y="399"/>
      <point x="554" y="399" type="curve" smooth="yes"/>
      <point x="415" y="399"/>
      <point x="314" y="466"/>
      <point x="253" y="651" type="curve"/>
    </contour>
  </outline>
</glyph>
<glyph name="three.dnom" format="1">
  <advance width="811"/>
  <outline>
    <contour>
      <point x="102" y="131" type="line" name="hr01"/>
      <point x="163" y="41"/>
      <point x="270" y="-25"/>
      <point x="399" y="-25" type="curve" smooth="yes"/>
      <point x="554" y="-25"/>
      <point x="682" y="68"/>
      <point x="682" y="215" type="curve" smooth="yes"/>
      <point x="682" y="322"/>
      <point x="600" y="389"/>
      <point x="510" y="412" type="curve"/>
      <point x="592" y="451"/>
      <point x="650" y="514"/>
      <point x="650" y="608" type="curve" name="hr02" smooth="yes"/>
      <point x="650" y="743"/>
      <point x="534" y="823"/>
      <point x="397" y="823" type="curve" smooth="yes"/>
      <point x="286" y="823"/>
      <point x="204" y="772"/>
      <point x="134" y="692" type="curve"/>
      <point x="214" y="624" type="line"/>
      <point x="259" y="679"/>
      <point x="317" y="720"/>
      <point x="376" y="720" type="curve" smooth="yes"/>
      <point x="464" y="720"/>
      <point x="523" y="669"/>
      <point x="523" y="592" type="curve" smooth="yes"/>
      <point x="523" y="510"/>
      <point x="442" y="449"/>
      <point x="304" y="449" type="curve"/>
      <point x="304" y="365" type="line"/>
      <point x="460" y="365"/>
      <point x="553" y="315"/>
      <point x="553" y="223" type="curve" name="hr03" smooth="yes"/>
      <point x="553" y="130"/>
      <point x="479" y="79"/>
      <point x="392" y="79" type="curve" smooth="yes"/>
      <point x="309" y="79"/>
      <point x="239" y="124"/>
      <point x="190" y="198" type="curve"/>
    </contour>
  </outline>
</glyph>
<glyph name="three.onum" format="1">
  <advance width="1017"/>
  <outline>
    <contour>
      <point x="53" y="3" type="line" name="hr01"/>
      <point x="141" y="-93"/>
      <point x="274" y="-176"/>
      <point x="483" y="-176" type="curve" smooth="yes"/>
      <point x="722" y="-176"/>
      <point x="912" y="-36"/>
      <point x="912" y="205" type="curve" smooth="yes"/>
      <point x="912" y="393"/>
      <point x="787" y="504"/>
      <point x="630" y="541" type="curve"/>
      <point x="630" y="549" type="line"/>
      <point x="771" y="600"/>
      <point x="867" y="700"/>
      <point x="867" y="863" type="curve" name="hr02" smooth="yes"/>
      <point x="867" y="1082"/>
      <point x="704" y="1200"/>
      <point x="477" y="1200" type="curve" smooth="yes"/>
      <point x="324" y="1200"/>
      <point x="203" y="1137"/>
      <point x="102" y="1044" type="curve"/>
      <point x="192" y="939" type="line"/>
      <point x="269" y="1017"/>
      <point x="362" y="1064"/>
      <point x="471" y="1064" type="curve" smooth="yes"/>
      <point x="610" y="1064"/>
      <point x="697" y="983"/>
      <point x="697" y="851" type="curve" smooth="yes"/>
      <point x="697" y="708"/>
      <point x="605" y="603"/>
      <point x="326" y="603" type="curve"/>
      <point x="326" y="474" type="line"/>
      <point x="637" y="474"/>
      <point x="744" y="373"/>
      <point x="744" y="213" type="curve" name="hr03" smooth="yes"/>
      <point x="744" y="59"/>
      <point x="632" y="-36"/>
      <point x="473" y="-36" type="curve" smooth="yes"/>
      <point x="318" y="-36"/>
      <point x="216" y="31"/>
      <point x="138" y="113" type="curve"/>
    </contour>
  </outline>
</glyph>
<glyph name="tt_ddha-deva" format="1">
  <advance width="1051"/>
  <outline>
    <contour>
      <point x="642" y="403" type="line"/>
      <point x="642" y="140" type="line"/>
      <point x="687" y="179" type="line"/>
      <point x="629" y="185"/>
      <point x="571" y="189"/>
      <point x="519" y="188" type="curve" smooth="yes"/>
      <point x="226" y="186"/>
      <point x="107" y="33"/>
      <point x="107" y="-168" type="curve" smooth="yes"/>
      <point x="107" y="-407"/>
      <point x="287" y="-542"/>
      <point x="554" y="-542" type="curve" smooth="yes"/>
      <point x="783" y="-542"/>
      <point x="967" y="-441"/>
      <point x="967" y="-255" type="curve" smooth="yes"/>
      <point x="967" y="-125"/>
      <point x="867" y="-56"/>
      <point x="736" y="-56" type="curve" smooth="yes"/>
      <point x="572" y="-56"/>
      <point x="510" y="-149"/>
      <point x="510" y="-235" type="curve" smooth="yes"/>
      <point x="510" y="-325"/>
      <point x="564" y="-390"/>
      <point x="650" y="-444" type="curve"/>
      <point x="747" y="-417" type="line"/>
      <point x="666" y="-366"/>
      <point x="638" y="-309"/>
      <point x="638" y="-257" type="curve" smooth="yes"/>
      <point x="639" y="-205"/>
      <point x="673" y="-160"/>
      <point x="752" y="-161" type="curve" smooth="yes"/>
      <point x="808" y="-162"/>
      <point x="849" y="-191"/>
      <point x="849" y="-249" type="curve" smooth="yes"/>
      <point x="849" y="-349"/>
      <point x="752" y="-414"/>
      <point x="578" y="-418" type="curve" smooth="yes"/>
      <point x="347" y="-425"/>
      <point x="258" y="-323"/>
      <point x="258" y="-174" type="curve" smooth="yes"/>
      <point x="258" y="23"/>
      <point x="398" y="72"/>
      <point x="584" y="72" type="curve" smooth="yes"/>
      <point x="647" y="72"/>
      <point x="730" y="71"/>
      <point x="789" y="69" type="curve"/>
      <point x="789" y="403" type="line"/>
    </contour>
    <contour>
      <point x="679" y="293"/>
      <point x="812" y="322"/>
      <point x="911" y="375" type="curve"/>
      <point x="866" y="495" type="line"/>
      <point x="767" y="450"/>
      <point x="668" y="423"/>
      <point x="550" y="423" type="curve" smooth="yes"/>
      <point x="340" y="423"/>
      <point x="265" y="510"/>
      <point x="265" y="644" type="curve" smooth="yes"/>
      <point x="265" y="831"/>
      <point x="412" y="860"/>
      <point x="586" y="859" type="curve" smooth="yes"/>
      <point x="647" y="859"/>
      <point x="714" y="856"/>
      <point x="772" y="852" type="curve"/>
      <point x="772" y="1204" type="line"/>
      <point x="623" y="1204" type="line"/>
      <point x="623" y="930" type="line"/>
      <point x="691" y="964" type="line"/>
      <point x="640" y="975"/>
      <point x="581" y="982"/>
      <point x="523" y="982" type="curve" smooth="yes"/>
      <point x="280" y="982"/>
      <point x="112" y="880"/>
      <point x="112" y="653" type="curve" smooth="yes"/>
      <point x="112" y="395"/>
      <point x="327" y="293"/>
      <point x="557" y="293" type="curve" smooth="yes"/>
    </contour>
    <contour>
      <point x="1050" y="1129" type="line"/>
      <point x="1050" y="1262" type="line"/>
      <point x="-15" y="1262" type="line"/>
      <point x="-15" y="1129" type="line"/>
    </contour>
  </outline>
</glyph>
<glyph name="tt_va-deva" format="1">
  <advance width="1041"/>
  <outline>
    <contour>
      <point x="623" y="1204" type="line"/>
      <point x="623" y="930" type="line"/>
      <point x="691" y="964" type="line"/>
      <point x="640" y="975"/>
      <point x="582" y="982"/>
      <point x="520" y="982" type="curve" smooth="yes"/>
      <point x="281" y="982"/>
      <point x="112" y="880"/>
      <point x="112" y="653" type="curve" smooth="yes"/>
      <point x="112" y="400"/>
      <point x="328" y="298"/>
      <point x="556" y="298" type="curve" smooth="yes"/>
      <point x="682" y="298"/>
      <point x="812" y="327"/>
      <point x="917" y="385" type="curve"/>
      <point x="872" y="505" type="line"/>
      <point x="768" y="455"/>
      <point x="662" y="428"/>
      <point x="558" y="428" type="curve" smooth="yes"/>
      <point x="334" y="428"/>
      <point x="265" y="515"/>
      <point x="265" y="647" type="curve" smooth="yes"/>
      <point x="265" y="837"/>
      <point x="444" y="859"/>
      <point x="584" y="859" type="curve" smooth="yes"/>
      <point x="651" y="859"/>
      <point x="714" y="856"/>
      <point x="772" y="852" type="curve"/>
      <point x="772" y="1204" type="line"/>
    </contour>
    <contour>
      <point x="249" y="182"/>
      <point x="124" y="69"/>
      <point x="124" y="-129" type="curve" smooth="yes"/>
      <point x="124" y="-317"/>
      <point x="241" y="-440"/>
      <point x="432" y="-440" type="curve" smooth="yes"/>
      <point x="548" y="-440"/>
      <point x="686" y="-391"/>
      <point x="762" y="-274" type="curve"/>
      <point x="723" y="-171" type="line"/>
      <point x="658" y="-259"/>
      <point x="559" y="-314"/>
      <point x="447" y="-314" type="curve" smooth="yes"/>
      <point x="336" y="-314"/>
      <point x="274" y="-259"/>
      <point x="274" y="-136" type="curve" smooth="yes"/>
      <point x="274" y="8"/>
      <point x="358" y="46"/>
      <point x="472" y="50" type="curve" smooth="yes"/>
      <point x="547" y="52"/>
      <point x="655" y="39"/>
      <point x="753" y="-5" type="curve"/>
      <point x="753" y="86" type="line"/>
      <point x="670" y="152"/>
      <point x="561" y="182"/>
      <point x="453" y="182" type="curve" smooth="yes"/>
    </contour>
    <contour>
      <point x="692" y="402" type="line"/>
      <point x="692" y="-519" type="line"/>
      <point x="841" y="-519" type="line"/>
      <point x="841" y="402" type="line"/>
    </contour>
    <contour>
      <point x="-15" y="1262" type="line"/>
      <point x="-15" y="1129" type="line"/>
      <point x="1056" y="1129" type="line"/>
      <point x="1056" y="1262" type="line"/>
    </contour>
    <contour>
      <point x="698" y="1168" type="move" name="top"/>
    </contour>
    <contour>
      <point x="769" y="-498" type="move" name="bottom"/>
    </contour>
    <contour>
      <point x="510" y="1168" type="move" name="topcandra"/>
    </contour>
  </outline>
</glyph>
<glyph name="uni013C.a" format="1">
  <advance width="503"/>
  <outline>
    <contour>
      <point x="169" y="0" type="line"/>
      <point x="335" y="0" type="line"/>
      <point x="335" y="1458" type="line"/>
      <point x="169" y="1458" type="line"/>
    </contour>
    <contour>
      <point x="193" y="-98" type="curve"/>
      <point x="156" y="-176" type="line"/>
      <point x="213" y="-190"/>
      <point x="260" y="-213"/>
      <point x="260" y="-266" type="curve" smooth="yes"/>
      <point x="260" y="-319"/>
      <point x="184" y="-346"/>
      <point x="78" y="-360" type="curve"/>
      <point x="94" y="-442" type="line"/>
      <point x="249" y="-430"/>
      <point x="390" y="-375"/>
      <point x="390" y="-256" type="curve" smooth="yes"/>
      <point x="390" y="-164"/>
      <point x="329" y="-119"/>
    </contour>
  </outline>
</glyph>
<glyph name="uni03020300.cap" format="1">
  <advance width="0"/>
  <outline>
    <contour>
      <point x="229" y="1804" type="line" name="hr01"/>
      <point x="84" y="1804" type="line"/>
      <point x="269" y="1577" type="line"/>
      <point x="375" y="1577" type="line"/>
    </contour>
    <contour>
      <point x="-261" y="1446" type="line" name="hr02"/>
      <point x="-133" y="1446" type="line"/>
      <point x="-4" y="1573" type="line"/>
      <point x="4" y="1573" type="line"/>
      <point x="133" y="1446" type="line"/>
      <point x="261" y="1446" type="line"/>
      <point x="73" y="1663" type="line"/>
      <point x="-73" y="1663" type="line"/>
    </contour>
    <contour>
      <point x="57" y="1050" type="move" name="_top"/>
    </contour>
  </outline>
</glyph>
<glyph name="uni03020306.cap" format="1">
  <advance width="0"/>
  <outline>
    <contour>
      <point x="-261" y="1446" type="line" name="hr00"/>
      <point x="-133" y="1446" type="line"/>
      <point x="-4" y="1573" type="line"/>
      <point x="4" y="1573" type="line"/>
      <point x="133" y="1446" type="line"/>
      <point x="261" y="1446" type="line"/>
      <point x="73" y="1663" type="line"/>
      <point x="-73" y="1663" type="line"/>
    </contour>
    <contour>
      <point x="0" y="1722" type="curve" smooth="yes"/>
      <point x="158" y="1722"/>
      <point x="236" y="1812"/>
      <point x="250" y="1920" type="curve"/>
      <point x="158" y="1920" type="line"/>
      <point x="141" y="1857"/>
      <point x="98" y="1811"/>
      <point x="0" y="1811" type="curve" smooth="yes"/>
      <point x="-98" y="1811"/>
      <point x="-141" y="1857"/>
      <point x="-158" y="1920" type="curve"/>
      <point x="-250" y="1920" type="line"/>
      <point x="-236" y="1812"/>
      <point x="-158" y="1722"/>
    </contour>
    <contour>
      <point x="0" y="1050" type="move" name="_top"/>
    </contour>
  </outline>
</glyph>
<glyph name="uni03020309" format="1">
  <advance width="0"/>
  <outline>
    <contour>
      <point x="-237" y="1174" type="line" name="hr00"/>
      <point x="-123" y="1174" type="line"/>
      <point x="-4" y="1323" type="line"/>
      <point x="4" y="1323" type="line"/>
      <point x="123" y="1174" type="line"/>
      <point x="237" y="1174" type="line"/>
      <point x="69" y="1417" type="line"/>
      <point x="-69" y="1417" type="line"/>
    </contour>
    <contour>
      <point x="237" y="1286" type="line"/>
      <point x="333" y="1309"/>
      <point x="427" y="1346"/>
      <point x="427" y="1456" type="curve" smooth="yes"/>
      <point x="427" y="1552"/>
      <point x="336" y="1599"/>
      <point x="177" y="1605" type="curve"/>
      <point x="164" y="1522" type="line"/>
      <point x="264" y="1516"/>
      <point x="305" y="1491"/>
      <point x="305" y="1438" type="curve" smooth="yes"/>
      <point x="305" y="1395"/>
      <point x="270" y="1372"/>
      <point x="218" y="1357" type="curve"/>
    </contour>
    <contour>
      <point x="95" y="1050" type="move" name="_top"/>
    </contour>
  </outline>
</glyph>
<glyph name="uni03060309" format="1">
  <advance width="0"/>
  <outline>
    <contour>
      <point x="0" y="1178" type="curve" name="hr00" smooth="yes"/>
      <point x="176" y="1178"/>
      <point x="250" y="1317"/>
      <point x="258" y="1438" type="curve"/>
      <point x="170" y="1438" type="line"/>
      <point x="158" y="1353"/>
      <point x="104" y="1273"/>
      <point x="0" y="1273" type="curve" smooth="yes"/>
      <point x="-104" y="1273"/>
      <point x="-158" y="1353"/>
      <point x="-170" y="1438" type="curve"/>
      <point x="-258" y="1438" type="line"/>
      <point x="-250" y="1317"/>
      <point x="-176" y="1178"/>
    </contour>
    <contour>
      <point x="-55" y="1399" type="line"/>
      <point x="43" y="1421"/>
      <point x="136" y="1460"/>
      <point x="136" y="1568" type="curve" smooth="yes"/>
      <point x="136" y="1666"/>
      <point x="46" y="1713"/>
      <point x="-113" y="1717" type="curve"/>
      <point x="-126" y="1634" type="line"/>
      <point x="-27" y="1630"/>
      <point x="15" y="1604"/>
      <point x="15" y="1549" type="curve" smooth="yes"/>
      <point x="15" y="1506"/>
      <point x="-22" y="1484"/>
      <point x="-72" y="1469" type="curve"/>
    </contour>
    <contour>
      <point x="0" y="1050" type="move" name="_top"/>
    </contour>
  </outline>
</glyph>
<glyph name="uni0328.cap" format="1">
  <advance width="0"/>
  <outline>
    <contour>
      <point x="13" y="6" type="line" name="hr00"/>
      <point x="-55" y="-45"/>
      <point x="-134" y="-141"/>
      <point x="-134" y="-256" type="curve" smooth="yes"/>
      <point x="-134" y="-373"/>
      <point x="-49" y="-434"/>
      <point x="59" y="-434" type="curve" smooth="yes"/>
      <point x="115" y="-434"/>
      <point x="184" y="-408"/>
      <point x="222" y="-377" type="curve"/>
      <point x="176" y="-286" type="line"/>
      <point x="152" y="-304"/>
      <point x="127" y="-314"/>
      <point x="94" y="-314" type="curve" smooth="yes"/>
      <point x="44" y="-314"/>
      <point x="-5" y="-284"/>
      <point x="-5" y="-219" type="curve" smooth="yes"/>
      <point x="-5" y="-141"/>
      <point x="47" y="-59"/>
      <point x="135" y="6" type="curve"/>
    </contour>
    <contour>
      <point x="44" y="1050" type="move" name="_top"/>
    </contour>
  </outline>
</glyph>
<glyph name="uni1E37.a" format="1">
  <advance width="503"/>
  <outline>
    <contour>
      <point x="169" y="0" type="line"/>
      <point x="335" y="0" type="line"/>
      <point x="335" y="1458" type="line"/>
      <point x="169" y="1458" type="line"/>
    </contour>
    <contour>
      <point x="252" y="-421" type="curve" smooth="yes"/>
      <point x="316" y="-421"/>
      <point x="361" y="-377"/>
      <point x="361" y="-311" type="curve" smooth="yes"/>
      <point x="361" y="-248"/>
      <point x="316" y="-204"/>
      <point x="252" y="-204" type="curve" smooth="yes"/>
      <point x="188" y="-204"/>
      <point x="141" y="-248"/>
      <point x="141" y="-311" type="curve" smooth="yes"/>
      <point x="141" y="-377"/>
      <point x="188" y="-421"/>
    </contour>
  </outline>
</glyph>
<glyph name="uni1ECA.a" format="1">
  <advance width="703"/>
  <outline>
    <contour>
      <point x="94" y="0" type="line"/>
      <point x="605" y="0" type="line"/>
      <point x="605" y="143" type="line"/>
      <point x="434" y="143" type="line"/>
      <point x="434" y="1202" type="line"/>
      <point x="605" y="1202" type="line"/>
      <point x="605" y="1343" type="line"/>
      <point x="94" y="1343" type="line"/>
      <point x="94" y="1202" type="line"/>
      <point x="266" y="1202" type="line"/>
      <point x="266" y="143" type="line"/>
      <point x="94" y="143" type="line"/>
    </contour>
    <contour>
      <point x="353" y="-421" type="curve" smooth="yes"/>
      <point x="417" y="-421"/>
      <point x="463" y="-377"/>
      <point x="463" y="-311" type="curve" smooth="yes"/>
      <point x="463" y="-248"/>
      <point x="417" y="-204"/>
      <point x="353" y="-204" type="curve" smooth="yes"/>
      <point x="291" y="-204"/>
      <point x="244" y="-248"/>
      <point x="244" y="-311" type="curve" smooth="yes"/>
      <point x="244" y="-377"/>
      <point x="291" y="-421"/>
    </contour>
  </outline>
</glyph>
<glyph name="y-deva" format="1">
  <advance width="619"/>
  <outline>
    <contour>
      <point x="179" y="1146" type="line"/>
      <point x="254" y="1065"/>
      <point x="299" y="966"/>
      <point x="299" y="903" type="curve" smooth="yes"/>
      <point x="299" y="811"/>
      <point x="223" y="741"/>
      <point x="42" y="675" type="curve"/>
      <point x="94" y="404"/>
      <point x="258" y="258"/>
      <point x="478" y="258" type="curve" smooth="yes"/>
      <point x="618" y="258"/>
      <point x="752" y="328"/>
      <point x="853" y="429" type="curve"/>
      <point x="832" y="585" type="line"/>
      <point x="734" y="471"/>
      <point x="614" y="399"/>
      <point x="480" y="399" type="curve" smooth="yes"/>
      <point x="342" y="399"/>
      <point x="240" y="466"/>
      <point x="180" y="651" type="curve"/>
      <point x="153" y="577" type="line"/>
      <point x="351" y="647"/>
      <point x="451" y="753"/>
      <point x="451" y="887" type="curve" smooth="yes"/>
      <point x="451" y="966"/>
      <point x="414" y="1050"/>
      <point x="335" y="1149" type="curve"/>
    </contour>
    <contour>
      <point x="-15" y="1262" type="line"/>
      <point x="-15" y="1129" type="line"/>
      <point x="650" y="1129" type="line"/>
      <point x="650" y="1262" type="line"/>
    </contour>
  </outline>
</glyph>
<glyph name="ya-deva.post" format="1">
  <advance width="1166"/>
  <outline>
    <contour>
      <point x="640" y="148"/>
      <point x="746" y="194"/>
      <point x="833" y="285" type="curve"/>
      <point x="840" y="480" type="line"/>
      <point x="757" y="343"/>
      <point x="617" y="290"/>
      <point x="502" y="290" type="curve" smooth="yes"/>
      <point x="363" y="290"/>
      <point x="256" y="369"/>
      <point x="220" y="529" type="curve"/>
      <point x="200" y="470" type="line"/>
      <point x="295" y="499"/>
      <point x="475" y="571"/>
      <point x="475" y="750" type="curve" smooth="yes"/>
      <point x="475" y="888"/>
      <point x="371" y="940"/>
      <point x="200" y="940" type="curve" smooth="yes"/>
      <point x="22" y="940"/>
      <point x="-98" y="887"/>
      <point x="-258" y="804" type="curve"/>
      <point x="-210" y="674" type="line"/>
      <point x="-95" y="744"/>
      <point x="68" y="813"/>
      <point x="205" y="813" type="curve" smooth="yes"/>
      <point x="288" y="813"/>
      <point x="330" y="787"/>
      <point x="330" y="739" type="curve" smooth="yes"/>
      <point x="330" y="677"/>
      <point x="257" y="618"/>
      <point x="70" y="568" type="curve"/>
      <point x="126" y="296"/>
      <point x="282" y="148"/>
      <point x="513" y="148" type="curve" smooth="yes"/>
    </contour>
    <contour>
      <point x="966" y="0" type="line"/>
      <point x="966" y="1156" type="line"/>
      <point x="810" y="1156" type="line"/>
      <point x="810" y="0" type="line"/>
    </contour>
    <contour>
      <point x="1181" y="1129" type="line"/>
      <point x="1181" y="1262" type="line"/>
      <point x="-23" y="1262" type="line"/>
      <point x="-23" y="1129" type="line"/>
    </contour>
    <contour>
      <point x="888" y="1168" type="move" name="top"/>
    </contour>
    <contour>
      <point x="893" y="28" type="move" name="bottom"/>
    </contour>
    <contour>
      <point x="577" y="1167" type="move" name="topcandra"/>
    </contour>
  </outline>
</glyph>
<glyph name="zha-deva.np" format="1">
  <advance width="1152"/>
  <outline>
    <contour>
      <point x="470" y="1157" type="line"/>
      <point x="470" y="704" type="line" smooth="yes"/>
      <point x="470" y="573"/>
      <point x="401" y="531"/>
      <point x="321" y="531" type="curve" smooth="yes"/>
      <point x="253" y="531"/>
      <point x="195" y="561"/>
      <point x="133" y="604" type="curve"/>
      <point x="68" y="489" type="line"/>
      <point x="142" y="428"/>
      <point x="238" y="397"/>
      <point x="326" y="397" type="curve" smooth="yes"/>
      <point x="489" y="397"/>
      <point x="626" y="503"/>
      <point x="626" y="724" type="curve" smooth="yes"/>
      <point x="626" y="1173" type="line"/>
    </contour>
    <contour>
      <point x="584" y="157" type="line"/>
      <point x="985" y="-348" type="line"/>
      <point x="1100" y="-254" type="line"/>
      <point x="684" y="198" type="line"/>
    </contour>
    <contour>
      <point x="519" y="289" type="line"/>
      <point x="487" y="230"/>
      <point x="477" y="180"/>
      <point x="474" y="148" type="curve" smooth="yes"/>
      <point x="476" y="72"/>
      <point x="532" y="38"/>
      <point x="585" y="37" type="curve" smooth="yes"/>
      <point x="632" y="38"/>
      <point x="677" y="52"/>
      <point x="762" y="94" type="curve"/>
      <point x="749" y="125" type="line"/>
      <point x="611" y="289" type="line"/>
    </contour>
    <contour>
      <point x="674" y="825"/>
      <point x="559" y="781"/>
      <point x="519" y="731" type="curve"/>
      <point x="575" y="634" type="line"/>
      <point x="613" y="666"/>
      <point x="681" y="694"/>
      <point x="762" y="694" type="curve" smooth="yes"/>
      <point x="889" y="694"/>
      <point x="952" y="625"/>
      <point x="952" y="509" type="curve" smooth="yes"/>
      <point x="952" y="359"/>
      <point x="831" y="248"/>
      <point x="587" y="153" type="curve"/>
      <point x="681" y="63" type="line"/>
      <point x="940" y="159"/>
      <point x="1098" y="311"/>
      <point x="1098" y="524" type="curve" smooth="yes"/>
      <point x="1098" y="690"/>
      <point x="990" y="825"/>
      <point x="769" y="825" type="curve" smooth="yes"/>
    </contour>
    <contour>
      <point x="-15" y="1262" type="line"/>
      <point x="-15" y="1129" type="line"/>
      <point x="1167" y="1129" type="line"/>
      <point x="1167" y="1262" type="line"/>
    </contour>
    <contour>
      <point x="549" y="1167" type="move" name="top"/>
    </contour>
    <contour>
      <point x="546" y="1167" type="move" name="topcandra"/>
    </contour>
  </outline>
</glyph>
